<?xml version="1.0" standalone="no"?>
<!DOCTYPE svg PUBLIC "-//W3C//DTD SVG 1.1//EN" "http://www.w3.org/Graphics/SVG/1.1/DTD/svg11.dtd" >
<svg xmlns="http://www.w3.org/2000/svg">
<metadata>
This is a custom SVG webfont generated by Font Squirrel.
Copyright   : Copyright c ParaType Inc 2004 All rights reserved
Designer    : Tagir Safayev
Foundry     : ParaType Inc
Foundry URL : wwwparatypecom
</metadata>
<defs>
<font id="webfontjUlXzQbX" horiz-adv-x="856" >
<font-face units-per-em="2048" ascent="1638" descent="-410" />
<missing-glyph horiz-adv-x="477" />
<glyph unicode=" "  horiz-adv-x="477" />
<glyph unicode="&#x09;" horiz-adv-x="477" />
<glyph unicode="&#xa0;" horiz-adv-x="477" />
<glyph unicode="!" horiz-adv-x="430" d="M92 1434l35 -1076h164l47 1076h-246zM96 225v-225h226v225h-226z" />
<glyph unicode="&#x22;" horiz-adv-x="702" d="M92 1405l55 -504h82l56 504h-193zM418 1405l55 -504h82l55 504h-192z" />
<glyph unicode="#" horiz-adv-x="907" d="M305 1434l-59 -424h-131v-131h112l-43 -318h-131l-2 -133h113l-60 -428h154l59 428h189l-60 -428h154l59 428h132l2 133h-113l43 318h131l2 131h-115l60 424h-154l-59 -424h-189l60 424h-154zM526 561h-188l43 318h188z" />
<glyph unicode="$" horiz-adv-x="931" d="M418 -164h98v166q106 8 171 50t98.5 102.5t44 128t10.5 129.5v28q0 68 -10.5 128.5t-53.5 119.5q-43 57 -94 82t-100 41l-66 23v393q23 -4 40 -16.5t28 -24.5q27 -31 32 -70t5 -61v-39h204v47q0 63 -18.5 137t-77.5 137q-31 33 -83 61.5t-130 33.5v165h-98v-165 q-66 -6 -115 -31t-84 -55q-37 -35 -59.5 -73t-33.5 -73t-14 -66.5t-3 -54.5v-20q0 -53 4 -104.5t28 -104.5q35 -72 86.5 -105.5t110.5 -54.5l80 -26v-459q-25 4 -47.5 15t-36.5 28q-20 23 -28.5 59.5t-8.5 67.5v39h-205v-47q0 -80 19.5 -140.5t50.5 -101.5q41 -53 110.5 -86 t145.5 -37v-166zM516 629q20 -8 45 -22.5t39 -33.5q25 -31 30 -75.5t5 -71.5v-33q0 -33 -5 -72.5t-30 -68.5q-18 -23 -43 -33t-41 -14v424zM418 868q-16 8 -36 20.5t-34 31.5q-23 29 -29 60.5t-6 68.5q0 33 4.5 63.5t24.5 58.5q16 25 34.5 37.5t41.5 18.5v-359z" />
<glyph unicode="%" horiz-adv-x="1282" d="M854 1434l-590 -1434h156l590 1434h-156zM1190 530q0 47 -12.5 88t-49.5 76q-35 33 -75.5 43.5t-79.5 10.5t-80 -10.5t-76 -43.5q-37 -35 -49 -75.5t-12 -88.5v-313q0 -47 12 -88t49 -76q35 -33 76 -43t80 -10t80 10t75 43q37 35 49.5 76t12.5 88v313zM915 532 q0 8 1.5 22.5t11.5 25.5q18 18 45 18t45 -18q10 -10 11 -24.5t1 -23.5v-317q0 -8 -1 -22.5t-11 -24.5q-18 -18 -45 -18t-45 18q-10 10 -11.5 24.5t-1.5 22.5v317zM526 1217q0 47 -12 88t-49 75q-35 33 -76 43.5t-80 10.5t-80 -10.5t-75 -43.5q-37 -35 -49.5 -75.5 t-12.5 -87.5v-314q0 -47 12.5 -88t49.5 -76q35 -33 75.5 -43t79.5 -10t80 10.5t76 42.5q37 35 49 76t12 88v314zM252 1219q0 8 1 22t11 25q18 18 45 18t45 -18q10 -10 11.5 -24.5t1.5 -22.5v-318q0 -8 -1 -22.5t-12 -24.5q-18 -18 -45 -18t-45 18q-10 10 -11 24.5t-1 22.5 v318z" />
<glyph unicode="&#x26;" horiz-adv-x="1003" d="M823 580q-6 -33 -12 -53l-14 -44l-16 -42q-7 -19 -27 -46l-232 367q39 33 86 78t80 90q39 53 62.5 112.5t23.5 131.5q0 82 -30.5 135t-79.5 88q-37 25 -88.5 41t-122.5 16q-57 0 -120 -15.5t-116 -68.5q-47 -45 -65.5 -99t-18.5 -120q0 -88 19.5 -146.5t48.5 -107.5 q18 -35 41 -69l39 -58q-45 -35 -92.5 -82t-75.5 -88q-39 -57 -55.5 -127t-16.5 -139q0 -74 21.5 -131.5t64.5 -106.5q53 -61 118.5 -88.5t162.5 -27.5q57 0 115.5 12t103.5 37q29 16 54.5 38.5t43.5 43.5l70 -111h219l-154 242q29 31 48.5 61.5t35.5 73.5q16 39 28.5 79 t20.5 76zM618 250q-12 -18 -25 -29.5t-36 -23.5q-27 -16 -54.5 -24.5t-68.5 -8.5t-82 13t-71 59q-23 31 -29 61.5t-6 58.5q0 98 47 166q16 23 41.5 50.5t52.5 48.5zM406 942q-20 27 -48 83t-28 128q0 23 5 52.5t32 54.5q10 10 31.5 21t56.5 11q25 0 47 -7t41 -25 q12 -12 23.5 -36t11.5 -61q0 -29 -7.5 -55.5t-19.5 -52.5q-12 -29 -38 -69t-77 -85z" />
<glyph unicode="'" horiz-adv-x="438" d="M123 1405l55 -504h82l55 504h-192z" />
<glyph unicode="(" horiz-adv-x="526" d="M485 -418q-37 102 -70.5 218t-54.5 216q-23 102 -38 235.5t-15 256.5t15.5 256t37.5 235q20 100 54.5 216t70.5 219h-143q-63 -127 -108.5 -242t-75 -226.5t-43 -224t-13.5 -233.5t13.5 -233.5t43 -224t75 -227.5t108.5 -241h143z" />
<glyph unicode=")" horiz-adv-x="526" d="M41 1434q37 -102 70.5 -218t54.5 -217q10 -51 20.5 -111.5t17.5 -124t11 -129t4 -126.5t-4 -127t-11 -129.5t-17.5 -123.5l-20.5 -112q-20 -100 -54 -215.5t-71 -218.5h143q63 125 108.5 241t75 227.5t43 224t13.5 233.5t-13.5 233.5t-43 224t-74.5 226.5t-109 242h-143z " />
<glyph unicode="*" horiz-adv-x="804" d="M156 895l178 113l-6 -220h137l-8 220l188 -117l68 129l-195 94l195 100l-68 121l-184 -112l4 211h-135l4 -211l-180 102l-58 -108l178 -103l-182 -102z" />
<glyph unicode="+" horiz-adv-x="1011" d="M102 678v-164h322v-321h164v321h321v164h-321v321h-164v-321h-322z" />
<glyph unicode="," horiz-adv-x="450" d="M102 225v-430l226 205v225h-226z" />
<glyph unicode="-" horiz-adv-x="643" d="M92 719v-184h459v184h-459z" />
<glyph unicode="." horiz-adv-x="450" d="M102 225v-225h226v225h-226z" />
<glyph unicode="/" horiz-adv-x="692" d="M559 1434l-590 -1434h164l590 1434h-164z" />
<glyph unicode="0" d="M113 309q0 -72 18.5 -140.5t87.5 -123.5q35 -29 86 -47t123 -18q59 0 113.5 16t101.5 55q35 31 55.5 62.5t30.5 65.5t12 67t2 63v815q0 59 -11 117.5t-66 118.5q-51 53 -111.5 73.5t-126.5 20.5q-59 0 -117.5 -17.5t-99.5 -52.5q-35 -29 -54.5 -63.5t-29.5 -69t-12 -67.5 t-2 -60v-815zM539 338q0 -29 -4.5 -58.5t-20.5 -56.5q-29 -43 -86 -43q-18 0 -42 7.5t-44 35.5q-16 25 -20.5 55.5t-4.5 59.5v758q0 29 4.5 60.5t20.5 53.5q31 43 86 43q29 0 51.5 -12t34.5 -31q16 -23 20.5 -54.5t4.5 -59.5v-758z" />
<glyph unicode="1" d="M375 0h205v1434h-197l-229 -168v-211l221 159v-1214z" />
<glyph unicode="2" d="M113 1032h204v55q0 35 2.5 64t16.5 53q10 18 31.5 33.5t58.5 15.5q33 0 51.5 -11t28.5 -21q31 -37 31 -105v-31q0 -27 -5.5 -63.5t-11.5 -59t-20 -53.5l-25 -53l-362 -668v-188h628v195h-393l324 608l25.5 46t25.5 69q12 39 15 66.5t3 64.5v75q0 72 -19.5 131.5 t-53.5 100.5q-47 59 -107.5 78.5t-130.5 19.5q-51 0 -113.5 -14.5t-115.5 -69.5q-35 -37 -61.5 -97.5t-26.5 -156.5v-84z" />
<glyph unicode="3" d="M113 1030h204v82q0 25 5.5 52.5t25.5 52.5q31 37 76 36q29 0 50.5 -9t31.5 -21q14 -14 23.5 -36t9.5 -50v-183q0 -16 -5.5 -43.5t-27.5 -50.5q-20 -20 -43 -25.5t-45 -5.5h-47v-182h49q27 0 48 -3t41.5 -25.5t25 -50t4.5 -52.5v-213q0 -74 -35 -98.5t-74 -24.5 q-33 0 -54.5 11.5t-31.5 25.5q-14 18 -20.5 47t-6.5 51v95h-204v-146q0 -74 24.5 -125t57.5 -82q53 -51 110 -64t113 -13q66 0 127 15t114 68q59 59 71.5 126t12.5 153v137q0 33 -3 71t-15 72.5t-36.5 65.5t-70.5 49q41 16 66 42t38 55.5t17 59.5t4 54v207q0 86 -32.5 144.5 t-71.5 89.5q-43 35 -102.5 50t-114.5 15q-127 0 -209 -70q-68 -57 -84 -120.5t-16 -108.5v-125z" />
<glyph unicode="4" d="M379 1434l-305 -1041v-172h405v-221h205v221h98v185h-98v407h-205v-405h-198l299 1026h-201z" />
<glyph unicode="5" d="M137 1434v-779h189q14 33 32 52q18 20 38 26t42 6q47 0 72 -30q16 -20 20.5 -44t4.5 -47v-311q0 -16 -4.5 -42.5t-22.5 -49.5q-12 -16 -31.5 -25.5t-50.5 -9.5q-29 0 -51.5 11.5t-32.5 27.5q-14 18 -17 42t-3 46v39h-205v-63q0 -51 17.5 -111.5t76.5 -114.5 q41 -35 95 -56t126 -21q88 0 143.5 27.5t86.5 62.5q51 53 64 113.5t13 111.5v387q0 53 -16 100t-43 76q-31 35 -78 54.5t-98 19.5t-96 -19q-37 -14 -66 -41v377h397v185h-602z" />
<glyph unicode="6" d="M446 1434l-256 -635q-12 -33 -25 -63.5t-24.5 -64.5t-17.5 -74t-6 -89v-209q0 -61 16.5 -121.5t75.5 -118.5q47 -43 101.5 -61t113.5 -18q66 0 129 20t104 61q33 33 57.5 89.5t24.5 144.5v280q0 78 -22.5 124t-38.5 65q-35 41 -77 57.5t-81 16.5q-25 0 -55.5 -4.5 t-52.5 -20.5l254 621h-220zM535 319q0 -29 -4.5 -55t-22.5 -49q-12 -16 -34.5 -25.5t-51.5 -9.5q-35 0 -52.5 13.5t-25.5 23.5q-16 20 -19 42t-3 42v244q0 33 11 55.5t25 36.5q18 18 39 25.5t41 7.5q45 0 74 -35q16 -18 19.5 -39t3.5 -43v-234z" />
<glyph unicode="7" d="M121 1434v-359h184v168h221l-325 -1243h207l327 1245v189h-614z" />
<glyph unicode="8" d="M743 1124q0 14 -5 67.5t-34.5 112t-94 104.5t-181.5 46t-181.5 -46t-94 -104.5t-34.5 -111.5t-5 -68v-161q0 -59 18.5 -109.5t77.5 -110.5q-41 -31 -61.5 -61.5t-27.5 -62t-7 -64.5v-66v-180q0 -14 5 -67.5t34.5 -111.5t94 -104t181.5 -46t181.5 46t94 104t34.5 111.5 t5 67.5v180v66q0 33 -7 64.5t-27.5 62.5t-61.5 61q59 59 77.5 109.5t18.5 110.5v161zM539 987q0 -20 -3.5 -47t-13.5 -51.5t-32.5 -42t-61.5 -17.5t-61.5 17.5t-32.5 42t-13.5 51.5t-3.5 47v109q0 20 3.5 46.5t13.5 51.5t32.5 42t61.5 17t61.5 -17t32.5 -42t13.5 -51.5 t3.5 -46.5v-109zM539 338q0 -20 -3.5 -47t-13.5 -51.5t-32.5 -42t-61.5 -17.5t-61.5 17.5t-32.5 42t-13.5 51t-3.5 47.5v184q0 20 3.5 47t13.5 51.5t32.5 42t61.5 17.5t61.5 -17.5t32.5 -42t13.5 -51t3.5 -47.5v-184z" />
<glyph unicode="9" d="M410 0l256 635q12 33 25.5 63.5t24.5 64.5t17 74t6 89v209q0 61 -16 121.5t-76 117.5q-47 43 -101 61.5t-114 18.5q-66 0 -129 -20.5t-104 -61.5q-33 -33 -57.5 -89t-24.5 -144v-281q0 -78 22.5 -124t38.5 -64q35 -41 77 -57.5t81 -16.5q25 0 55.5 4t52.5 21l-254 -621 h220zM322 1114q0 29 4 55.5t22 49.5q29 35 86 34q35 0 52.5 -13t25.5 -23q16 -20 19.5 -42t3.5 -42v-244q0 -33 -11.5 -55.5t-25.5 -36.5q-18 -18 -39 -25.5t-41 -7.5q-25 0 -43.5 9t-30.5 26q-16 18 -19 38.5t-3 43.5v233z" />
<glyph unicode=":" horiz-adv-x="440" d="M102 1006v-215h215v215h-215zM102 215v-215h215v215h-215z" />
<glyph unicode=";" horiz-adv-x="440" d="M102 215v-420l215 205v215h-215zM102 1006v-215h215v215h-215z" />
<glyph unicode="&#x3c;" horiz-adv-x="960" d="M51 559l807 -375v150l-594 276l594 277v149l-807 -374v-103z" />
<glyph unicode="=" horiz-adv-x="1011" d="M102 453v-164h807v164h-807zM102 739v-164h807v164h-807z" />
<glyph unicode="&#x3e;" horiz-adv-x="960" d="M909 559v103l-807 374v-149l594 -277l-594 -276v-150z" />
<glyph unicode="?" horiz-adv-x="724" d="M248 354h205v117q0 27 3 63.5t27 75.5l144 228q29 47 38 100t9 111v112q0 86 -34 139.5t-58 75.5q-84 78 -236 78q-59 0 -107.5 -16.5t-82.5 -42.5q-43 -33 -79 -94.5t-36 -141.5v-123h205v99q0 23 7 46t17.5 37.5t31 24.5t50.5 10q23 0 45.5 -5t40.5 -23 q20 -20 25.5 -42t5.5 -44v-86q0 -20 -5 -58.5t-30 -76.5l-117 -185q-27 -41 -41 -65.5t-20 -45t-7 -43t-1 -55.5v-170zM238 225v-225h225v225h-225z" />
<glyph unicode="@" horiz-adv-x="1366" d="M967 1001h-170v-79q-16 18 -36 35.5t-42 29.5q-27 14 -57.5 21.5t-57.5 7.5q-41 0 -74.5 -13.5t-56.5 -33.5q-25 -25 -40 -56.5t-22.5 -66.5t-9.5 -70t-2 -65v-283q0 -53 9.5 -113.5t48.5 -107.5q37 -45 84 -58.5t90 -13.5q51 0 79.5 13.5t61.5 39.5q29 23 46.5 47.5 t21.5 69.5q2 -47 21.5 -81t43.5 -52q27 -20 60.5 -28.5t64.5 -8.5q59 0 107.5 23.5t70.5 64.5q14 25 24.5 71t10.5 132v448q0 137 -21.5 238.5t-93.5 175.5q-82 86 -200.5 116t-253.5 30q-92 0 -165 -14.5t-127 -38t-92 -52.5t-63 -59q-68 -86 -86 -213t-18 -256v-492 q0 -51 2 -106.5t11 -110.5t29.5 -106.5t57.5 -94.5q43 -49 99.5 -77.5t116 -43t113.5 -18.5t91 -4q33 0 80 3t82 9q27 4 80 17.5t121 42.5l-39 131l-73 -22.5t-75 -18.5q-35 -6 -77 -9t-66 -3q-23 0 -60.5 2t-82 12t-87.5 28.5t-73.5 53.5t-55 103.5t-24.5 207.5v496 q0 139 13 203.5t20 85.5q8 25 28.5 58.5t60.5 64t104.5 51t162.5 20.5q104 0 183 -29.5t122 -72.5q31 -31 47.5 -70t25.5 -81t11 -83t2 -74v-450q0 -76 -12 -107.5t-45 -31.5q-18 0 -27.5 8t-14.5 20.5t-6 24.5t-1 20v643zM569 705q0 20 5.5 60t31.5 69q31 33 76 32 q29 0 49.5 -12t32.5 -29q16 -25 19 -57.5t3 -56.5v-215q0 -47 -3 -90.5t-19 -71.5q-10 -18 -33.5 -33.5t-58.5 -15.5q-23 0 -42.5 8t-35.5 30.5t-20.5 49t-4.5 53.5v279z" />
<glyph unicode="A" horiz-adv-x="878" d="M827 0l-313 1434h-180l-314 -1434h205l68 307h262l68 -307h204zM530 489h-217l107 545z" />
<glyph unicode="B" horiz-adv-x="923" d="M123 1434v-1434h311q92 0 150.5 20.5t93.5 47.5q45 35 70.5 77.5t37 83.5t13.5 78t2 60v108q0 51 -5 89t-36 91q-14 23 -36 47.5t-62 42.5q16 10 36.5 25.5t40.5 40.5q41 47 51.5 99.5t10.5 123.5q0 31 -2 74t-14.5 88t-39 89t-75.5 79q-35 25 -72 38t-74 20.5t-69.5 9.5 t-55.5 2h-276zM328 1249h96q51 0 83 -14t50 -33q16 -18 27.5 -43.5t11.5 -54.5v-88q0 -35 -10.5 -68t-28.5 -55q-16 -18 -47 -35.5t-84 -17.5h-98v409zM328 655h104q63 0 109 -37q35 -29 45 -66.5t10 -90.5v-68q0 -10 -1 -26.5t-4 -37t-11.5 -42t-20.5 -39.5 q-33 -45 -75 -54.5t-64 -9.5h-92v471z" />
<glyph unicode="C" horiz-adv-x="888" d="M592 1026h199v98q0 76 -27 137.5t-66 100.5q-47 45 -114.5 68.5t-132.5 23.5q-57 0 -122 -20.5t-112 -63.5q-70 -59 -87 -135t-17 -145v-744q0 -55 8 -123.5t63 -134.5q35 -41 95.5 -74.5t162.5 -33.5q106 0 171 30.5t98 65.5q29 29 57.5 92t28.5 170v59h-205v-51 q0 -53 -10.5 -79.5t-18.5 -37.5q-18 -25 -49 -37t-65 -12q-43 0 -69 17.5t-36 33.5q-20 29 -23.5 61t-3.5 66v707q0 37 5.5 74t29.5 67q16 18 41 32.5t66 14.5q49 0 73.5 -20.5t32.5 -30.5q14 -20 20.5 -46t6.5 -48v-82z" />
<glyph unicode="D" horiz-adv-x="921" d="M123 1434v-1434h305q31 0 66.5 4t73.5 15.5t76 34t73 59.5q61 68 76.5 143.5t15.5 149.5v632q0 23 -3 61t-13.5 81t-33 87t-61.5 81q-35 31 -72.5 48t-77.5 25.5t-78 10.5t-71 2h-276zM328 1233h104q39 0 72 -6t61 -41q25 -31 32 -67t7 -66v-635q0 -35 -7 -84t-40 -84 q-31 -33 -67.5 -41t-69.5 -8h-92v1032z" />
<glyph unicode="E" horiz-adv-x="808" d="M123 0h614v195h-409v438h356v184h-356v422h403v195h-608v-1434z" />
<glyph unicode="F" horiz-adv-x="796" d="M123 0h205v614h366v195h-366v430h417v195h-622v-1434z" />
<glyph unicode="G" horiz-adv-x="944" d="M829 1024v57q0 100 -31.5 170t-72.5 111q-43 43 -108.5 67.5t-145.5 24.5q-29 0 -66.5 -5t-76.5 -19.5t-77 -41t-69 -69.5q-47 -66 -57 -131.5t-10 -130.5v-725q0 -49 12 -119t61 -131q51 -63 111.5 -82.5t116.5 -19.5q27 0 70.5 5t88.5 29q23 12 49.5 35t49.5 62 l53 -111h102v782h-378v-184h174v-192q0 -39 -4.5 -86.5t-32.5 -81.5q-20 -27 -53 -42.5t-66 -15.5q-37 0 -66.5 14.5t-48.5 36.5q-25 33 -30 74t-5 74v672q0 39 5.5 77.5t33.5 73.5q18 23 46 37t69 14t67.5 -12t43.5 -29q29 -29 35 -59.5t6 -56.5v-72h204z" />
<glyph unicode="H" horiz-adv-x="931" d="M123 1434v-1434h205v633h276v-633h205v1434h-205v-617h-276v617h-205z" />
<glyph unicode="I" horiz-adv-x="450" d="M123 1434v-1434h205v1434h-205z" />
<glyph unicode="J" horiz-adv-x="739" d="M616 1434v-1028q0 -39 -2 -82t-12 -86t-31.5 -86t-58.5 -80q-61 -61 -130 -76.5t-132 -15.5q-20 0 -51 3t-68 15t-76 36.5t-75 67.5l157 134q27 -37 59.5 -46.5t55.5 -9.5q35 0 66.5 11.5t54.5 41.5q25 33 32 72t7 74v1055h204z" />
<glyph unicode="K" horiz-adv-x="972" d="M123 1434v-1434h205v420l127 221l243 -641h224l-344 846l290 588h-215l-325 -691v691h-205z" />
<glyph unicode="L" horiz-adv-x="833" d="M123 1434v-1434h639v195h-434v1239h-205z" />
<glyph unicode="M" horiz-adv-x="1214" d="M123 0h205v897h10l215 -647h109l215 647h10v-897h205v1434h-205l-269 -791h-8l-282 791h-205v-1434z" />
<glyph unicode="N" horiz-adv-x="997" d="M123 1434v-1434h205v901l342 -901h204v1434h-204v-902l-342 902h-205z" />
<glyph unicode="O" horiz-adv-x="946" d="M115 377q0 -82 16 -159t90 -146q47 -43 109.5 -67.5t142.5 -24.5t142.5 24.5t109.5 67.5q74 70 90 146.5t16 158.5v680q0 82 -16 158.5t-90 146.5q-47 43 -109.5 67.5t-142.5 24.5t-142.5 -24.5t-109.5 -67.5q-74 -70 -90 -146.5t-16 -158.5v-680zM627 346 q0 -33 -7.5 -64.5t-35.5 -60.5q-16 -16 -44 -28.5t-67 -12.5t-66.5 12.5t-44.5 28.5q-29 29 -36 60.5t-7 64.5v741q0 33 7.5 65t35.5 60q16 16 44 28.5t67 12.5t66.5 -12t44.5 -29q29 -29 36 -60.5t7 -64.5v-741z" />
<glyph unicode="P" horiz-adv-x="880" d="M123 0h205v567h121q33 0 69.5 4t73.5 16.5t72.5 34t66.5 58.5q31 35 48.5 73t26.5 76.5t11 74.5t2 67v41q0 80 -17.5 168t-86.5 159q-35 33 -71 52.5t-72.5 29t-73.5 11.5t-70 2h-305v-1434zM328 1249h71q41 0 83 -4t77 -33q43 -35 49 -82t6 -83v-95q0 -39 -3 -75.5 t-35.5 -71.5t-70.5 -44t-67 -9h-110v497z" />
<glyph unicode="Q" horiz-adv-x="987" d="M123 377q0 -82 16.5 -159t89.5 -146q55 -51 120 -70.5t132 -21.5q7 0 15 -1q74 0 119 20q50 22 90 56l126 -100l105 127l-129 102q23 47 28 89t5 104v680q0 82 -16.5 158.5t-90.5 146.5q-47 43 -109.5 67.5t-142.5 24.5t-142.5 -24.5t-109.5 -67.5q-74 -70 -90 -146.5 t-16 -158.5v-680zM537 188q-25 -8 -56 -8q-39 0 -66.5 12.5t-43.5 28.5q-29 29 -36 60.5t-7 64.5v741q0 33 7 65t36 60q16 16 43.5 28.5t66.5 12.5t66.5 -12t44.5 -29q29 -29 36 -60.5t7 -64.5v-768l-92 74l-105 -127z" />
<glyph unicode="R" horiz-adv-x="911" d="M123 1434v-1434h205v618h121l198 -618h213l-225 662q29 10 57.5 28.5t50.5 44.5q33 37 54.5 97.5t21.5 130.5v108q0 80 -20.5 143.5t-55.5 106.5q-37 45 -81 67.5t-92 33t-94 11.5t-85 1h-268zM328 1249h106q33 0 68 -3t65 -34q20 -20 33.5 -55t13.5 -76v-102 q0 -41 -6 -70.5t-37 -58.5q-29 -29 -60.5 -38t-66.5 -9h-116v446z" />
<glyph unicode="S" horiz-adv-x="901" d="M596 1036h205v47q0 180 -94.5 275.5t-247.5 95.5q-72 0 -134.5 -19.5t-113.5 -68.5q-45 -43 -76 -109.5t-31 -156.5v-41q0 -53 4.5 -106.5t26.5 -102.5q31 -72 82 -105.5t107 -54.5l149 -53q16 -6 47 -20.5t51.5 -43t26.5 -69.5t6 -78v-53q0 -33 -5 -73t-28 -69 q-12 -16 -40.5 -33.5t-88.5 -17.5q-20 0 -53 7.5t-59 39.5q-23 29 -28 66t-5 61v39h-205v-47q0 -6 1 -32.5t7 -62.5t19.5 -75t38.5 -72q35 -49 105.5 -86.5t180.5 -37.5q90 0 158 26.5t109 67.5q45 47 71.5 127t26.5 190v49q0 68 -10.5 129.5t-50.5 118.5q-41 55 -90.5 81 t-96.5 42l-125 45l-50 24q-28 13 -44 40q-20 29 -26.5 74.5t-6.5 74.5q0 35 7.5 75t35.5 70q25 25 51.5 32t49.5 7q45 0 69.5 -15t38.5 -32q25 -31 30 -69.5t5 -61.5v-39z" />
<glyph unicode="T" horiz-adv-x="794" d="M41 1434v-195h254v-1239h205v1239h254v195h-713z" />
<glyph unicode="U" horiz-adv-x="929" d="M123 1434v-1057q0 -119 31.5 -196t82 -122t111 -62t117.5 -17t117.5 17t110.5 62t82 122t32 196v1057h-205v-1088q0 -74 -35 -120t-102 -46q-68 0 -102.5 46t-34.5 120v1088h-205z" />
<glyph unicode="V" horiz-adv-x="827" d="M807 1434h-215l-172 -992h-8l-166 992h-226l304 -1434h180z" />
<glyph unicode="W" horiz-adv-x="1222" d="M31 1434l225 -1434h184l164 926h14l164 -926h185l225 1434h-217l-111 -893h-12l-164 893h-153l-164 -893h-9l-114 893h-217z" />
<glyph unicode="X" horiz-adv-x="894" d="M63 1434l275 -676l-307 -758h225l188 518l203 -518h217l-311 758l283 676h-226l-166 -451l-163 451h-218z" />
<glyph unicode="Y" horiz-adv-x="847" d="M827 1434h-217l-174 -570h-12l-178 570h-226l302 -824v-610h204v604z" />
<glyph unicode="Z" horiz-adv-x="829" d="M121 1434v-185h391l-420 -1069v-180h635v184h-420l430 1092v158h-616z" />
<glyph unicode="[" horiz-adv-x="516" d="M496 1434h-373v-1852h371v152h-187v1548h189v152z" />
<glyph unicode="\" horiz-adv-x="692" d="M133 1434h-164l590 -1434h164z" />
<glyph unicode="]" horiz-adv-x="606" d="M123 1434v-152h188v-1548h-186v-152h371v1852h-373z" />
<glyph unicode="^" horiz-adv-x="1208" d="M92 555h164l348 694l348 -694h164l-444 879h-135z" />
<glyph unicode="_" horiz-adv-x="1095" d="M0 -291v-127h1096v127h-1096z" />
<glyph unicode="`" horiz-adv-x="493" d="M233 1184h117l-90 250h-219z" />
<glyph unicode="a" horiz-adv-x="829" d="M514 0h205v711q0 53 -14.5 118.5t-69.5 120.5q-39 37 -94.5 59.5t-124.5 22.5q-72 0 -131.5 -22.5t-98.5 -61.5q-35 -35 -60 -92q-24 -53 -24 -117v-10h195q2 39 27 66q16 20 37.5 28t44.5 8q51 0 81 -32q18 -20 22.5 -42t4.5 -44v-107q-47 4 -76.5 5t-40.5 1 q-23 0 -53.5 -2t-64 -11t-66.5 -26.5t-57 -48.5q-23 -27 -35 -59.5t-18.5 -66t-8.5 -67.5t-2 -61q0 -61 13.5 -124.5t60.5 -108.5q39 -35 82 -44t74 -9q33 0 61.5 8t56.5 31q23 16 41.5 38.5t28.5 38.5h4v-100zM514 299q0 -68 -34 -99.5t-81 -31.5q-53 0 -82 47 q-12 20 -16 40.5t-4 43.5q0 25 5 54.5t26 52.5q25 29 57.5 36t56.5 7q35 0 72 -7v-143z" />
<glyph unicode="b" horiz-adv-x="839" d="M315 0v90h2q12 -20 31 -38.5t39 -33.5q29 -18 61.5 -26t63.5 -8q39 0 67.5 9t49 21.5t34 25.5t19.5 21q35 47 41 104.5t6 106.5v529q0 37 -9 84t-50 88q-31 33 -69 46t-83 13t-75.5 -11t-59.5 -28q-39 -23 -68 -59v500h-204v-1434h204zM315 696q0 25 5.5 51.5t27.5 51.5 q10 10 29.5 21t48.5 11q43 0 72 -30q18 -20 22 -42t4 -40v-412q0 -27 -3 -48t-23 -44q-29 -31 -72 -31q-29 0 -48.5 11.5t-29.5 21.5q-23 25 -28 51.5t-5 50.5v377z" />
<glyph unicode="c" horiz-adv-x="786" d="M725 709v6q0 59 -20.5 122.5t-61.5 106.5q-39 41 -100.5 64.5t-134.5 23.5q-76 0 -127.5 -23.5t-84 -52t-51 -62.5t-27.5 -68.5t-12.5 -68.5t-3.5 -65v-350q0 -33 1 -67.5t8.5 -69.5t24 -69t46.5 -64q41 -43 103.5 -65.5t132.5 -22.5t120 20.5t85 48.5q16 14 34.5 36 t34 49.5t24.5 64.5t9 82v18h-205v-2q0 -14 -3 -37.5t-19 -44.5q-16 -23 -38 -29t-44 -6q-37 0 -56.5 12.5t-27.5 22.5q-14 16 -19.5 40t-5.5 46v393q0 27 5 51.5t23.5 47t40 28.5t40.5 6q31 0 51 -11t31 -27q14 -20 18 -41t4 -39v-4h205z" />
<glyph unicode="d" horiz-adv-x="839" d="M524 0h205v1434h-205v-500q-29 37 -67 59q-29 16 -59.5 27.5t-75.5 11.5t-83 -13t-69 -46q-41 -41 -50 -88t-9 -84v-529q0 -49 6 -106t41 -105q6 -8 19 -21t33.5 -25.5t49.5 -21.5t68 -9q31 0 63.5 8t61.5 26q20 14 38.5 33t30.5 39h2v-90zM524 319q0 -25 -5 -51t-27 -51 q-10 -10 -30 -21.5t-48 -11.5q-45 0 -72 31q-20 23 -23.5 44.5t-3.5 47.5v412q0 18 4.5 39.5t22.5 42.5q27 31 72 30q29 0 48 -11t30 -21q23 -25 27.5 -51.5t4.5 -51.5v-377z" />
<glyph unicode="e" horiz-adv-x="813" d="M307 432h414v266q0 31 -3 64t-14.5 66.5t-32 67.5t-53.5 62q-39 35 -93 54.5t-119 19.5q-66 0 -117 -19.5t-86 -49.5q-33 -29 -52.5 -61t-30.5 -63.5t-14.5 -63.5t-3.5 -58v-389q0 -23 1 -53.5t8.5 -63.5t23 -65.5t41.5 -63.5q41 -45 102.5 -71.5t133.5 -26.5 q53 0 102 14t88 43q37 27 59.5 58.5t35 64.5t16.5 64.5t4 60.5v8h-205q0 -39 -18 -70q-29 -43 -82 -43t-78 29q-18 18 -22.5 42t-4.5 46v131zM307 590v125q0 20 4 41.5t21 40.5q29 35 80 34q47 0 75 -28q18 -18 23.5 -39t5.5 -41v-133h-209z" />
<glyph unicode="f" horiz-adv-x="548" d="M158 0h204v852h164v164h-166v104q0 29 5.5 52.5t25.5 46.5q23 25 46.5 29.5t49.5 4.5h41v181h-73q-53 0 -112.5 -11.5t-106.5 -52.5q-53 -47 -65.5 -106.5t-12.5 -112.5v-135h-107v-164h107v-852z" />
<glyph unicode="g" horiz-adv-x="831" d="M516 1016v-90h-2q-12 20 -30.5 38.5t-39.5 32.5q-29 18 -61.5 26.5t-63.5 8.5q-39 0 -67.5 -9t-49 -21.5t-33.5 -25.5t-19 -22q-35 -47 -41.5 -104t-6.5 -107v-518q0 -37 9.5 -84t50.5 -88q31 -33 68.5 -46t82.5 -13t76 11t60 28q39 23 67 59v-172q0 -31 -4 -59.5 t-18 -48.5q-10 -16 -31 -27.5t-53 -11.5q-16 0 -38 5t-38 23q-12 14 -20.5 34t-6.5 42h-205q4 -59 24.5 -116.5t53.5 -94.5q29 -35 84 -64.5t144 -29.5q90 0 147 28.5t88 63.5q53 55 65.5 117.5t12.5 124.5v1110h-205zM516 330q0 -25 -5 -51.5t-28 -51.5q-10 -10 -29.5 -21 t-47.5 -11q-43 0 -72 30q-18 23 -22.5 44.5t-4.5 37.5v402q0 25 4 47t23 45q29 31 72 30q29 0 48 -11t29 -21q23 -25 28 -51.5t5 -51.5v-366z" />
<glyph unicode="h" horiz-adv-x="839" d="M111 0h204v696q0 25 5.5 51.5t27.5 51.5q10 10 29.5 21t48.5 11q43 0 72 -30q18 -20 22 -42t4 -40v-719h205v801q0 37 -9 84t-50 88q-31 33 -69 46t-83 13t-75.5 -11t-59.5 -28q-39 -23 -68 -59v500h-204v-1434z" />
<glyph unicode="i" horiz-adv-x="425" d="M111 0h204v1016h-204v-1016zM111 1405v-201h204v201h-204z" />
<glyph unicode="j" horiz-adv-x="430" d="M319 1016h-204v-1112q0 -18 -3 -43t-24 -47q-10 -10 -29.5 -20.5t-52.5 -10.5h-37v-201h66q51 0 109.5 10.5t109.5 65.5q53 59 59 123.5t6 122.5v1112zM115 1405v-201h204v201h-204z" />
<glyph unicode="k" horiz-adv-x="825" d="M111 0h204v285l99 153l184 -438h221l-293 602l244 414h-205l-246 -443h-4v861h-204v-1434z" />
<glyph unicode="l" horiz-adv-x="471" d="M111 1434v-1155q0 -45 7 -95.5t44 -97.5q25 -31 53.5 -47t57 -25.5t54 -11.5t44.5 -2h59v190h-20q-12 0 -31 3.5t-35 17.5q-18 16 -23.5 37.5t-5.5 40.5v1145h-204z" />
<glyph unicode="m" horiz-adv-x="1245" d="M111 1016v-1016h204v696q0 25 5.5 51.5t27.5 51.5q18 20 38 26t38 6q41 0 70 -30q18 -23 22 -42.5t4 -39.5v-719h205v696q0 25 5 51.5t28 51.5q31 33 76 32q41 0 69 -30q16 -20 21.5 -41t5.5 -41v-719h205v774q0 41 -7.5 87t-37.5 89q-39 53 -88.5 67.5t-96.5 14.5 q-63 0 -112 -28q-29 -16 -51.5 -40t-39.5 -53q-10 25 -27.5 47.5t-45.5 40.5q-51 33 -111 33q-45 0 -78.5 -12t-60.5 -33q-16 -12 -32.5 -28.5t-31.5 -34.5v92h-204z" />
<glyph unicode="n" horiz-adv-x="839" d="M111 0h204v696q0 25 5.5 51.5t27.5 51.5q10 10 29.5 21t48.5 11q43 0 72 -30q18 -20 22 -42t4 -40v-719h205v801q0 37 -9 84t-50 88q-25 27 -62 43t-90 16q-16 0 -38.5 -3t-50.5 -14t-57.5 -32.5t-56.5 -58.5v92h-204v-1016z" />
<glyph unicode="o" horiz-adv-x="823" d="M102 328q0 -31 2 -66t12.5 -70.5t31 -70.5t55.5 -66q41 -35 96 -53t113 -18q57 0 112.5 18t96.5 53q35 31 55 66t30.5 70.5t12.5 70.5t2 66v360q0 31 -2 65.5t-12.5 70.5t-31 71t-54.5 66q-41 35 -96.5 53t-112.5 18t-112.5 -18.5t-96.5 -52.5q-35 -31 -55.5 -66t-31 -71 t-12.5 -70.5t-2 -65.5v-360zM516 315q0 -68 -31 -102q-12 -12 -31.5 -20.5t-41.5 -8.5q-45 0 -74 29q-31 35 -31 102v385q0 68 31 103q29 29 74 28q45 0 73 -28q31 -35 31 -103v-385z" />
<glyph unicode="p" horiz-adv-x="839" d="M315 1016h-204v-1434h204v500q29 -37 68 -59q29 -16 59.5 -27.5t75.5 -11.5t83 13t69 46q41 41 50 88t9 84v528q0 49 -6 106.5t-41 104.5q-6 8 -19.5 21.5t-34 26t-49 21.5t-67.5 9q-31 0 -63.5 -8t-61.5 -27q-20 -14 -38.5 -32.5t-31.5 -38.5h-2v90zM315 696 q0 25 5.5 51.5t27.5 51.5q10 10 29.5 21t48.5 11q43 0 72 -30q20 -23 23 -44.5t3 -47.5v-412q0 -18 -4 -39.5t-22 -42.5q-29 -31 -72 -31q-29 0 -48.5 11.5t-29.5 21.5q-23 25 -28 51.5t-5 50.5v377z" />
<glyph unicode="q" horiz-adv-x="839" d="M524 1016v-90h-2q-12 20 -30.5 38.5t-38.5 32.5q-29 18 -62 26.5t-63 8.5q-39 0 -68 -9t-49.5 -21.5t-33.5 -25.5t-19 -22q-35 -47 -41 -104t-6 -107v-528q0 -37 9 -84t50 -88q31 -33 68.5 -46t83.5 -13q45 0 75.5 11t59.5 28q39 23 67 59v-500h205v1434h-205zM524 319 q0 -25 -5 -51t-27 -51q-10 -10 -30 -21.5t-48 -11.5q-45 0 -72 31q-18 20 -22.5 42t-4.5 40v412q0 27 3.5 48t23.5 44q27 31 72 30q29 0 48 -11t30 -21q23 -25 27.5 -51.5t4.5 -51.5v-377z" />
<glyph unicode="r" horiz-adv-x="608" d="M111 1016v-1016h204v582q0 84 29 133t71 72.5t89 27.5q19 2 36 2q26 0 48 -4v219q-27 0 -60.5 -5t-69.5 -19.5t-72 -39t-67 -63.5l-4 2v109h-204z" />
<glyph unicode="s" horiz-adv-x="759" d="M688 741q0 59 -20.5 115.5t-57.5 93.5q-27 29 -83 55.5t-154 26.5q-84 0 -136.5 -25.5t-82.5 -56.5q-33 -35 -54.5 -90t-21.5 -131q0 -39 10 -85t45 -87q10 -10 39 -35.5t88 -50.5l121 -51q66 -29 84 -58.5t18 -70.5q0 -20 -5 -42t-21.5 -40.5t-37 -26.5t-42.5 -8 q-23 0 -46.5 8t-37.5 24.5t-20.5 37t-6.5 41.5h-205q0 -55 18.5 -112.5t57.5 -98.5q31 -35 88.5 -62.5t149.5 -27.5q98 0 156.5 30.5t91.5 71.5q41 51 53 106.5t12 92.5q0 66 -14.5 111.5t-37 74.5t-57 55.5t-73.5 42.5l-123 52q-20 8 -42 19t-38 34q-12 16 -16 33.5 t-4 31.5q0 53 30.5 78t69.5 25q47 0 74 -27q27 -29 30 -74h201z" />
<glyph unicode="t" horiz-adv-x="522" d="M135 1325v-309h-104v-164h104v-576q0 -47 8.5 -102t51.5 -102q25 -27 53 -41.5t58 -21.5t58.5 -8t51.5 -1h55v190h-27q-14 0 -36.5 2.5t-38.5 16.5q-20 16 -24.5 43t-4.5 43v557h131v164h-131v309h-205z" />
<glyph unicode="u" horiz-adv-x="839" d="M729 1016h-205v-697q0 -20 -5 -46.5t-27 -51.5q-14 -16 -36 -26.5t-50 -10.5q-25 0 -40.5 8.5t-25.5 18.5q-16 18 -20.5 40.5t-4.5 45.5v719h-204v-801q0 -37 8 -79t33 -77q18 -27 56 -51t103 -24q80 0 142 43q29 23 48 47t23 28v-102h205v1016z" />
<glyph unicode="v" horiz-adv-x="731" d="M721 1016h-205l-137 -645h-10l-138 645h-215l271 -1016h164z" />
<glyph unicode="w" horiz-adv-x="1116" d="M16 1016l242 -1016h174l123 623h10l123 -623h174l242 1016h-205l-127 -643l-125 643h-170l-121 -643l-131 643h-209z" />
<glyph unicode="x" horiz-adv-x="733" d="M14 0h215l140 311l139 -311h215l-254 518l242 498h-215l-127 -289l-127 289h-215l237 -498z" />
<glyph unicode="y" horiz-adv-x="761" d="M20 1016l297 -969l-32 -133q-12 -49 -21.5 -69.5t-15.5 -28.5q-23 -29 -48.5 -36t-47.5 -7h-39l4 -191h53q47 0 102.5 9.5t102.5 54.5q45 45 64.5 108.5t29.5 108.5l279 1153h-205l-127 -631h-8l-166 631h-222z" />
<glyph unicode="z" horiz-adv-x="694" d="M78 842h336l-363 -674v-168h592v174h-375l375 694v148h-565v-174z" />
<glyph unicode="{" horiz-adv-x="544" d="M379 1102q0 27 5 65.5t32 67.5q23 25 48 30t40 5h20v164h-32q-86 0 -140.5 -32t-81.5 -63q-29 -33 -44 -69.5t-22 -71.5t-8 -64.5t-1 -46.5v-249q0 -29 -3.5 -70t-15.5 -70q-16 -41 -54 -70.5t-102 -27.5v-184q63 2 101.5 -28t54.5 -71q12 -29 15.5 -69.5t3.5 -69.5v-250 q0 -27 2 -58.5t9 -64t22.5 -66.5t41.5 -63q41 -45 101.5 -69.5t120.5 -24.5h32v164h-20q-43 0 -67.5 17.5t-38 43t-16.5 55t-3 52.5v266q0 84 -12.5 141.5t-36.5 96.5q-14 23 -44 49.5t-83 40.5q53 14 82.5 40.5t44.5 49.5q49 76 49 238v266z" />
<glyph unicode="|" horiz-adv-x="389" d="M123 1454v-1872h143v1872h-143z" />
<glyph unicode="}" horiz-adv-x="544" d="M166 836q0 -162 49 -238q14 -23 44 -49.5t83 -40.5q-53 -14 -83 -41t-44 -49q-25 -39 -37 -96.5t-12 -141.5v-266q0 -23 -3 -52.5t-16.5 -55t-38 -43t-67.5 -17.5h-21v-164h33q59 0 119.5 24.5t101.5 69.5q27 29 41.5 63t22.5 66.5t10 64.5t2 58v250q0 29 3 70t16 69 q16 41 54 71t101 28v184q-63 -2 -101 27.5t-54 70.5q-12 29 -15.5 70t-3.5 70v249q0 16 -1 46t-8 65t-22.5 72t-44.5 69q-27 31 -81 63t-140 32h-33v-164h21q14 0 39.5 -5t48.5 -30q27 -29 32 -68t5 -65v-266z" />
<glyph unicode="~" horiz-adv-x="905" d="M651 766q0 -16 -5 -33.5t-13 -27.5q-6 -8 -20.5 -17.5t-43.5 -9.5q-23 0 -45 7t-47 17l-41 15q-23 8 -55.5 17t-71.5 9q-66 0 -103.5 -26.5t-55.5 -54.5q-23 -35 -31 -79t-8 -77v-6h143q0 16 5 33.5t13 27.5q6 8 20.5 17.5t43.5 9.5q23 0 45 -7.5t47 -17.5l41 -14 q23 -8 55.5 -17.5t71.5 -9.5q66 0 103.5 26.5t56.5 55.5q23 35 31 79t8 77v6h-144z" />
<glyph horiz-adv-x="888" d="M-29 625v-144h142v-147q0 -27 1 -57.5t8 -62.5t21.5 -63.5t40.5 -62.5q35 -41 95.5 -74.5t162.5 -33.5q106 0 171 30.5t98 65.5q29 29 57.5 92t28.5 178h-205q0 -53 -10.5 -79.5t-18.5 -37.5q-18 -25 -49 -37t-65 -12q-43 0 -69 17.5t-36 33.5q-20 29 -23.5 61t-3.5 66 v123h275v144h-275v143h275v143h-275v154q0 37 5.5 74t29.5 67q16 18 41 32.5t66 14.5q49 0 73.5 -20.5t32.5 -30.5q14 -20 21.5 -44.5t7.5 -47.5v-39h199l-2 53q-4 76 -29 137.5t-64 100.5q-47 45 -114.5 68.5t-132.5 23.5q-57 0 -122 -20.5t-112 -63.5q-70 -59 -87 -135 t-17 -145v-179h-142v-143h142v-143h-142z" />
<glyph unicode="&#x20ac;" horiz-adv-x="888" d="M-29 625v-144h142v-147q0 -27 1 -57.5t8 -62.5t21.5 -63.5t40.5 -62.5q35 -41 95.5 -74.5t162.5 -33.5q106 0 171 30.5t98 65.5q29 29 57.5 92t28.5 178h-205q0 -53 -10.5 -79.5t-18.5 -37.5q-18 -25 -49 -37t-65 -12q-43 0 -69 17.5t-36 33.5q-20 29 -23.5 61t-3.5 66 v123h275v144h-275v143h275v143h-275v154q0 37 5.5 74t29.5 67q16 18 41 32.5t66 14.5q49 0 73.5 -20.5t32.5 -30.5q14 -20 21.5 -44.5t7.5 -47.5v-39h199l-2 53q-4 76 -29 137.5t-64 100.5q-47 45 -114.5 68.5t-132.5 23.5q-57 0 -122 -20.5t-112 -63.5q-70 -59 -87 -135 t-17 -145v-179h-142v-143h142v-143h-142z" />
<glyph unicode="&#x2c6;" horiz-adv-x="888" d="M-29 625v-144h142v-147q0 -27 1 -57.5t8 -62.5t21.5 -63.5t40.5 -62.5q35 -41 95.5 -74.5t162.5 -33.5q106 0 171 30.5t98 65.5q29 29 57.5 92t28.5 178h-205q0 -53 -10.5 -79.5t-18.5 -37.5q-18 -25 -49 -37t-65 -12q-43 0 -69 17.5t-36 33.5q-20 29 -23.5 61t-3.5 66 v123h275v144h-275v143h275v143h-275v154q0 37 5.5 74t29.5 67q16 18 41 32.5t66 14.5q49 0 73.5 -20.5t32.5 -30.5q14 -20 21.5 -44.5t7.5 -47.5v-39h199l-2 53q-4 76 -29 137.5t-64 100.5q-47 45 -114.5 68.5t-132.5 23.5q-57 0 -122 -20.5t-112 -63.5q-70 -59 -87 -135 t-17 -145v-179h-142v-143h142v-143h-142z" />
<glyph unicode="&#xa2;" horiz-adv-x="761" d="M20 1016l297 -969l-32 -133q-12 -49 -21.5 -69.5t-15.5 -28.5q-23 -29 -48.5 -36t-47.5 -7h-39l4 -191h53q47 0 102.5 9.5t102.5 54.5q45 45 64.5 108.5t29.5 108.5l279 1153h-205l-127 -631h-8l-166 631h-222zM611 1421h-152v-30q0 -10 -2 -23.5t-6 -21.5 q-4 -12 -21.5 -26.5t-52.5 -14.5t-52.5 14t-21.5 27q-4 8 -6 21t-2 24v30h-151v-26q0 -41 10 -89.5t51 -88.5q39 -39 87 -48.5t85 -9.5t85 9.5t87 48.5q41 41 51.5 89t10.5 89v26z" />
<glyph unicode="&#x45e;" horiz-adv-x="761" d="M20 1016l297 -969l-32 -133q-12 -49 -21.5 -69.5t-15.5 -28.5q-23 -29 -48.5 -36t-47.5 -7h-39l4 -191h53q47 0 102.5 9.5t102.5 54.5q45 45 64.5 108.5t29.5 108.5l279 1153h-205l-127 -631h-8l-166 631h-222zM611 1421h-152v-30q0 -10 -2 -23.5t-6 -21.5 q-4 -12 -21.5 -26.5t-52.5 -14.5t-52.5 14t-21.5 27q-4 8 -6 21t-2 24v30h-151v-26q0 -41 10 -89.5t51 -88.5q39 -39 87 -48.5t85 -9.5t85 9.5t87 48.5q41 41 51.5 89t10.5 89v26z" />
<glyph unicode="&#xa3;" horiz-adv-x="739" d="M412 1434v-1055q0 -35 -7.5 -74t-31.5 -72q-23 -31 -54.5 -42t-66.5 -11q-23 0 -55.5 9.5t-59.5 46.5l-157 -134q37 -43 75.5 -67.5t75.5 -36.5t67.5 -15t51.5 -3q63 0 132 15t130 77q37 37 58.5 80t31.5 86t12 86t2 82v1028h-204z" />
<glyph unicode="&#x408;" horiz-adv-x="739" d="M412 1434v-1055q0 -35 -7.5 -74t-31.5 -72q-23 -31 -54.5 -42t-66.5 -11q-23 0 -55.5 9.5t-59.5 46.5l-157 -134q37 -43 75.5 -67.5t75.5 -36.5t67.5 -15t51.5 -3q63 0 132 15t130 77q37 37 58.5 80t31.5 86t12 86t2 82v1028h-204z" />
<glyph unicode="&#xa5;" horiz-adv-x="796" d="M123 0h205v1239h417v326h-204v-131h-418v-1434z" />
<glyph unicode="&#x490;" horiz-adv-x="796" d="M123 0h205v1239h417v326h-204v-131h-418v-1434z" />
<glyph unicode="&#xa8;" horiz-adv-x="808" d="M166 1782v-217h209v217h-209zM485 1782v-217h209v217h-209zM123 0h614v195h-409v438h356v184h-356v422h403v195h-608v-1434z" />
<glyph unicode="&#x401;" horiz-adv-x="808" d="M166 1782v-217h209v217h-209zM485 1782v-217h209v217h-209zM123 0h614v195h-409v438h356v184h-356v422h403v195h-608v-1434z" />
<glyph unicode="&#xa9;" horiz-adv-x="1396" d="M922 961q0 49 -11.5 87.5t-52.5 71.5q-37 31 -78 41t-82 10t-82 -10t-77 -41q-41 -33 -52.5 -71.5t-11.5 -87.5v-226q0 -49 11.5 -88t52.5 -72q37 -31 77.5 -41t81.5 -10t82 10.5t78 40.5q41 33 52.5 72t11.5 88v19h-156v-21q0 -10 -1 -25.5t-11.5 -25.5t-24.5 -16.5 t-31 -6.5q-35 0 -53 23q-10 12 -12 26.5t-2 24.5v230q0 10 2 24t12 27q18 23 53 22q35 0 54 -22q10 -12 12 -26.5t2 -24.5v-21h156v19zM219 848q0 100 38 187t102.5 151.5t151.5 102.5t187 38t187.5 -38t152 -102.5t102.5 -151.5t38 -187t-38 -187.5t-102.5 -152 t-151.5 -102t-188 -37.5q-100 0 -187 37.5t-151.5 102t-102.5 152t-38 187.5zM92 848q0 -125 48 -235.5t130 -192.5t192.5 -130t235.5 -48t235.5 48t192.5 130t130.5 192.5t48.5 235.5t-48.5 235.5t-130.5 192.5t-192.5 130t-235.5 48t-235.5 -48t-192.5 -130t-130 -192.5 t-48 -235.5z" />
<glyph unicode="&#xab;" horiz-adv-x="917" d="M866 981l-415 -414l415 -413v208l-207 205l207 205v209zM487 981l-415 -414l415 -413v208l-206 205l206 205v209z" />
<glyph unicode="&#xad;" horiz-adv-x="643" d="M92 719v-184h459v184h-459z" />
<glyph unicode="&#xae;" horiz-adv-x="1396" d="M219 848q0 100 38 187t102.5 151.5t151.5 102.5t187 38t187.5 -38t152 -102.5t102.5 -151.5t38 -187t-38 -187.5t-102.5 -152t-151.5 -102t-188 -37.5q-100 0 -187 37.5t-151.5 102t-102.5 152t-38 187.5zM494 524h155v240h60l92 -240h168l-115 273q18 8 30.5 17t16.5 15 q27 29 33 61t6 56v39q0 39 -11 77t-52 68q-37 29 -79 35t-79 6h-225v-647zM649 897v139h56q12 0 27.5 -3t29.5 -13q23 -16 22 -55q0 -31 -18 -50q-14 -14 -32.5 -16t-28.5 -2h-56zM92 848q0 -125 48 -235.5t130 -192.5t192.5 -130t235.5 -48t235.5 48t192.5 130t130.5 192.5 t48.5 235.5t-48.5 235.5t-130.5 192.5t-192.5 130t-235.5 48t-235.5 -48t-192.5 -130t-130 -192.5t-48 -235.5z" />
<glyph unicode="&#xb0;" horiz-adv-x="675" d="M51 1112q0 -68 26.5 -124t65.5 -91q35 -33 85.5 -52.5t109.5 -19.5q68 0 125 27t92 68q31 35 50.5 84t19.5 108q0 61 -21.5 111.5t-56.5 87.5q-43 47 -98.5 67.5t-110.5 20.5q-51 0 -103.5 -18.5t-97.5 -61.5q-53 -51 -69.5 -108.5t-16.5 -98.5zM174 1112q0 68 48 116 t116 48t116 -48t48 -116t-48 -116t-116 -48t-116 48t-48 116z" />
<glyph unicode="&#xb4;" horiz-adv-x="651" d="M111 0h204v815h306v299h-205v-98h-305v-1016z" />
<glyph unicode="&#x491;" horiz-adv-x="651" d="M111 0h204v815h306v299h-205v-98h-305v-1016z" />
<glyph unicode="&#xb8;" horiz-adv-x="817" d="M307 432h414v266q0 31 -3 64t-14.5 66.5t-32 67.5t-53.5 62q-39 35 -93 54.5t-119 19.5q-66 0 -117 -19.5t-86 -49.5q-33 -29 -52.5 -61t-30.5 -63.5t-14.5 -63.5t-3.5 -58v-389q0 -23 1 -53.5t8.5 -63.5t23 -65.5t41.5 -63.5q41 -45 102.5 -71.5t133.5 -26.5 q53 0 102 14t88 43q37 27 59.5 58.5t35 64.5t16.5 64.5t4 60.5v8h-205q0 -39 -18 -70q-29 -43 -82 -43t-78 29q-18 18 -22.5 42t-4.5 46v131zM307 590v125q0 20 4 41.5t21 40.5q29 35 80 34q47 0 75 -28q18 -18 23.5 -39t5.5 -41v-133h-209zM147 1403v-217h209v217h-209z M467 1403v-217h209v217h-209z" />
<glyph unicode="&#x451;" horiz-adv-x="817" d="M307 432h414v266q0 31 -3 64t-14.5 66.5t-32 67.5t-53.5 62q-39 35 -93 54.5t-119 19.5q-66 0 -117 -19.5t-86 -49.5q-33 -29 -52.5 -61t-30.5 -63.5t-14.5 -63.5t-3.5 -58v-389q0 -23 1 -53.5t8.5 -63.5t23 -65.5t41.5 -63.5q41 -45 102.5 -71.5t133.5 -26.5 q53 0 102 14t88 43q37 27 59.5 58.5t35 64.5t16.5 64.5t4 60.5v8h-205q0 -39 -18 -70q-29 -43 -82 -43t-78 29q-18 18 -22.5 42t-4.5 46v131zM307 590v125q0 20 4 41.5t21 40.5q29 35 80 34q47 0 75 -28q18 -18 23.5 -39t5.5 -41v-133h-209zM147 1403v-217h209v217h-209z M467 1403v-217h209v217h-209z" />
<glyph unicode="&#xbb;" horiz-adv-x="917" d="M51 981v-209l207 -205l-207 -205v-208l416 413zM430 981v-209l207 -205l-207 -205v-208l416 413z" />
<glyph unicode="&#xc0;" horiz-adv-x="878" d="M827 0l-313 1434h-180l-314 -1434h205l68 307h262l68 -307h204zM530 489h-217l107 545z" />
<glyph unicode="&#x410;" horiz-adv-x="878" d="M827 0l-313 1434h-180l-314 -1434h205l68 307h262l68 -307h204zM530 489h-217l107 545z" />
<glyph unicode="&#xc1;" horiz-adv-x="882" d="M123 1434v-1434h311q70 0 122 13.5t88 33t59.5 43t37.5 45.5q41 61 50.5 119.5t9.5 112.5v168q0 20 -1 47.5t-9.5 59.5t-27 65.5t-50.5 64.5q-35 33 -73 49.5t-75 23.5t-71.5 8t-65.5 1h-100v385h417v195h-622zM328 670h104q63 0 109 -37q35 -29 45 -67t10 -91v-78 q0 -37 -8 -79t-29 -70q-33 -45 -75 -54.5t-64 -9.5h-92v486z" />
<glyph unicode="&#x411;" horiz-adv-x="882" d="M123 1434v-1434h311q70 0 122 13.5t88 33t59.5 43t37.5 45.5q41 61 50.5 119.5t9.5 112.5v168q0 20 -1 47.5t-9.5 59.5t-27 65.5t-50.5 64.5q-35 33 -73 49.5t-75 23.5t-71.5 8t-65.5 1h-100v385h417v195h-622zM328 670h104q63 0 109 -37q35 -29 45 -67t10 -91v-78 q0 -37 -8 -79t-29 -70q-33 -45 -75 -54.5t-64 -9.5h-92v486z" />
<glyph unicode="&#xc2;" horiz-adv-x="923" d="M123 1434v-1434h311q92 0 150.5 20.5t93.5 47.5q45 35 70.5 77.5t37 83.5t13.5 78t2 60v108q0 51 -5 89t-36 91q-14 23 -36 47.5t-62 42.5q16 10 36.5 25.5t40.5 40.5q41 47 51.5 99.5t10.5 123.5q0 31 -2 74t-14.5 88t-39 89t-75.5 79q-35 25 -72 38t-74 20.5t-69.5 9.5 t-55.5 2h-276zM328 1249h96q51 0 83 -14t50 -33q16 -18 27.5 -43.5t11.5 -54.5v-88q0 -35 -10.5 -68t-28.5 -55q-16 -18 -47 -35.5t-84 -17.5h-98v409zM328 655h104q63 0 109 -37q35 -29 45 -66.5t10 -90.5v-68q0 -10 -1 -26.5t-4 -37t-11.5 -42t-20.5 -39.5 q-33 -45 -75 -54.5t-64 -9.5h-92v471z" />
<glyph unicode="&#x412;" horiz-adv-x="923" d="M123 1434v-1434h311q92 0 150.5 20.5t93.5 47.5q45 35 70.5 77.5t37 83.5t13.5 78t2 60v108q0 51 -5 89t-36 91q-14 23 -36 47.5t-62 42.5q16 10 36.5 25.5t40.5 40.5q41 47 51.5 99.5t10.5 123.5q0 31 -2 74t-14.5 88t-39 89t-75.5 79q-35 25 -72 38t-74 20.5t-69.5 9.5 t-55.5 2h-276zM328 1249h96q51 0 83 -14t50 -33q16 -18 27.5 -43.5t11.5 -54.5v-88q0 -35 -10.5 -68t-28.5 -55q-16 -18 -47 -35.5t-84 -17.5h-98v409zM328 655h104q63 0 109 -37q35 -29 45 -66.5t10 -90.5v-68q0 -10 -1 -26.5t-4 -37t-11.5 -42t-20.5 -39.5 q-33 -45 -75 -54.5t-64 -9.5h-92v471z" />
<glyph unicode="&#xc3;" horiz-adv-x="735" d="M123 0h205v1239h417v195h-622v-1434z" />
<glyph unicode="&#x413;" horiz-adv-x="735" d="M123 0h205v1239h417v195h-622v-1434z" />
<glyph unicode="&#xc4;" horiz-adv-x="917" d="M791 184v1250h-558v-105q0 -94 -2 -203.5t-6 -218t-13 -208t-22 -173.5q-16 -98 -42.5 -182t-61.5 -160h-96v-405h194v221h529v-221h194v405h-116zM586 1249v-1075h-291q35 78 54.5 146.5t31.5 142.5q8 47 16.5 109.5t14.5 144.5t10 185.5t4 234.5v112h160z" />
<glyph unicode="&#x414;" horiz-adv-x="917" d="M791 184v1250h-558v-105q0 -94 -2 -203.5t-6 -218t-13 -208t-22 -173.5q-16 -98 -42.5 -182t-61.5 -160h-96v-405h194v221h529v-221h194v405h-116zM586 1249v-1075h-291q35 78 54.5 146.5t31.5 142.5q8 47 16.5 109.5t14.5 144.5t10 185.5t4 234.5v112h160z" />
<glyph unicode="&#xc5;" horiz-adv-x="808" d="M123 0h614v195h-409v438h356v184h-356v422h403v195h-608v-1434z" />
<glyph unicode="&#x415;" horiz-adv-x="808" d="M123 0h614v195h-409v438h356v184h-356v422h403v195h-608v-1434z" />
<glyph unicode="&#xc6;" horiz-adv-x="1339" d="M772 819v615h-205v-615h-75q-47 0 -76 43q-20 29 -28.5 71t-16.5 118l-15 129q-6 59 -20 117.5t-62 99.5q-45 39 -97 46t-93 7h-37v-184h33q12 0 27.5 -6.5t25.5 -16.5q16 -16 24.5 -49t16.5 -102l14 -138q4 -41 9.5 -79.5t19.5 -73.5q16 -39 45 -60l-213 -741h223 l174 643h121v-643h205v643h121l174 -643h223l-213 741q29 20 45 60q14 35 19.5 73.5t9.5 79.5l14 138q8 70 16.5 102.5t24.5 48.5q10 10 25.5 16.5t28.5 6.5h32v184h-37q-41 0 -93 -7t-97 -46q-47 -41 -61.5 -99.5t-20.5 -117.5l-14 -129q-8 -76 -16.5 -118t-28.5 -71 q-29 -43 -76 -43h-76z" />
<glyph unicode="&#x416;" horiz-adv-x="1339" d="M772 819v615h-205v-615h-75q-47 0 -76 43q-20 29 -28.5 71t-16.5 118l-15 129q-6 59 -20 117.5t-62 99.5q-45 39 -97 46t-93 7h-37v-184h33q12 0 27.5 -6.5t25.5 -16.5q16 -16 24.5 -49t16.5 -102l14 -138q4 -41 9.5 -79.5t19.5 -73.5q16 -39 45 -60l-213 -741h223 l174 643h121v-643h205v643h121l174 -643h223l-213 741q29 20 45 60q14 35 19.5 73.5t9.5 79.5l14 138q8 70 16.5 102.5t24.5 48.5q10 10 25.5 16.5t28.5 6.5h32v184h-37q-41 0 -93 -7t-97 -46q-47 -41 -61.5 -99.5t-20.5 -117.5l-14 -129q-8 -76 -16.5 -118t-28.5 -71 q-29 -43 -76 -43h-76z" />
<glyph unicode="&#xc7;" horiz-adv-x="847" d="M61 1026h205v86q0 23 6.5 51.5t32.5 53.5q37 37 94 36q63 0 101 -30q31 -27 36 -60t5 -55v-92q0 -20 -5.5 -58t-33.5 -69q-23 -23 -56.5 -36t-74.5 -13h-56v-185h62q47 0 72.5 -10t35.5 -20q18 -16 29.5 -38t18 -45.5t7.5 -45t1 -35.5v-127q0 -35 -4.5 -65.5t-32.5 -57.5 q-12 -12 -36 -21.5t-62 -9.5q-25 0 -57 8.5t-50 28.5q-16 16 -24.5 46t-8.5 52v82h-205v-133q0 -47 11.5 -83t27 -62.5t29.5 -42t21 -19.5q55 -51 120.5 -64t122.5 -13q70 0 137.5 15t124.5 68q59 55 74.5 118t15.5 122v168q0 47 -6 92t-34 92q-10 18 -34 43t-69 47 q45 27 82 66q43 51 52 108.5t9 114.5v121q0 51 -12 90t-29.5 67.5t-37 47t-33.5 29.5q-47 35 -110.5 50t-125.5 15q-80 0 -136 -20.5t-91 -49.5q-37 -29 -58.5 -59.5t-32.5 -61t-14.5 -59t-3.5 -49.5v-129z" />
<glyph unicode="&#x417;" horiz-adv-x="847" d="M61 1026h205v86q0 23 6.5 51.5t32.5 53.5q37 37 94 36q63 0 101 -30q31 -27 36 -60t5 -55v-92q0 -20 -5.5 -58t-33.5 -69q-23 -23 -56.5 -36t-74.5 -13h-56v-185h62q47 0 72.5 -10t35.5 -20q18 -16 29.5 -38t18 -45.5t7.5 -45t1 -35.5v-127q0 -35 -4.5 -65.5t-32.5 -57.5 q-12 -12 -36 -21.5t-62 -9.5q-25 0 -57 8.5t-50 28.5q-16 16 -24.5 46t-8.5 52v82h-205v-133q0 -47 11.5 -83t27 -62.5t29.5 -42t21 -19.5q55 -51 120.5 -64t122.5 -13q70 0 137.5 15t124.5 68q59 55 74.5 118t15.5 122v168q0 47 -6 92t-34 92q-10 18 -34 43t-69 47 q45 27 82 66q43 51 52 108.5t9 114.5v121q0 51 -12 90t-29.5 67.5t-37 47t-33.5 29.5q-47 35 -110.5 50t-125.5 15q-80 0 -136 -20.5t-91 -49.5q-37 -29 -58.5 -59.5t-32.5 -61t-14.5 -59t-3.5 -49.5v-129z" />
<glyph unicode="&#xc8;" horiz-adv-x="993" d="M123 1434v-1434h205v164l338 717v-881h204v1434h-204v-164l-338 -717v881h-205z" />
<glyph unicode="&#x418;" horiz-adv-x="993" d="M123 1434v-1434h205v164l338 717v-881h204v1434h-204v-164l-338 -717v881h-205z" />
<glyph unicode="&#xc9;" horiz-adv-x="993" d="M123 1434v-1434h205v164l338 717v-881h204v1434h-204v-164l-338 -717v881h-205zM748 1778h-164v-19q0 -12 -4.5 -27.5t-20.5 -29.5q-14 -12 -29.5 -15.5t-31.5 -3.5t-31.5 3.5t-30.5 15.5q-16 14 -20 29.5t-4 27.5v19h-164v-25q0 -61 19.5 -101t41.5 -63q31 -29 80 -43 t109 -14q59 0 108 14.5t80 42.5q23 23 42.5 63t19.5 101v25z" />
<glyph unicode="&#x419;" horiz-adv-x="993" d="M123 1434v-1434h205v164l338 717v-881h204v1434h-204v-164l-338 -717v881h-205zM748 1778h-164v-19q0 -12 -4.5 -27.5t-20.5 -29.5q-14 -12 -29.5 -15.5t-31.5 -3.5t-31.5 3.5t-30.5 15.5q-16 14 -20 29.5t-4 27.5v19h-164v-25q0 -61 19.5 -101t41.5 -63q31 -29 80 -43 t109 -14q59 0 108 14.5t80 42.5q23 23 42.5 63t19.5 101v25z" />
<glyph unicode="&#xca;" horiz-adv-x="946" d="M123 1434v-1434h205v635h166l178 -635h223l-221 741q29 20 45 60q14 35 19 73.5l10 79.5l14 138q8 70 16 102.5t25 48.5q10 10 25.5 16.5t27.5 6.5h27v184h-31q-41 0 -93 -7t-97 -46q-47 -41 -61.5 -99.5t-20.5 -117.5l-15 -129q-8 -76 -16 -118t-29 -71q-29 -43 -76 -43 h-116v615h-205z" />
<glyph unicode="&#x41a;" horiz-adv-x="946" d="M123 1434v-1434h205v635h166l178 -635h223l-221 741q29 20 45 60q14 35 19 73.5l10 79.5l14 138q8 70 16 102.5t25 48.5q10 10 25.5 16.5t27.5 6.5h27v184h-31q-41 0 -93 -7t-97 -46q-47 -41 -61.5 -99.5t-20.5 -117.5l-15 -129q-8 -76 -16 -118t-29 -71q-29 -43 -76 -43 h-116v615h-205z" />
<glyph unicode="&#xcb;" horiz-adv-x="921" d="M799 1434h-574l-6 -385q0 -70 -2 -123.5t-4 -97.5l-4 -84l-4 -82q-2 -27 -5 -75t-8.5 -101.5t-12.5 -101.5t-15 -75q-4 -10 -19.5 -40.5t-52.5 -53.5q-23 -14 -43 -17t-37 -3h-22v-195h47q63 0 122.5 17.5t116.5 78.5q47 53 68 103.5t31 103.5q6 29 14 90.5t17 175.5 q2 43 5 88t4 100.5t3 126t6 165.5l6 200h164v-1249h205v1434z" />
<glyph unicode="&#x41b;" horiz-adv-x="921" d="M799 1434h-574l-6 -385q0 -70 -2 -123.5t-4 -97.5l-4 -84l-4 -82q-2 -27 -5 -75t-8.5 -101.5t-12.5 -101.5t-15 -75q-4 -10 -19.5 -40.5t-52.5 -53.5q-23 -14 -43 -17t-37 -3h-22v-195h47q63 0 122.5 17.5t116.5 78.5q47 53 68 103.5t31 103.5q6 29 14 90.5t17 175.5 q2 43 5 88t4 100.5t3 126t6 165.5l6 200h164v-1249h205v1434z" />
<glyph unicode="&#xcc;" horiz-adv-x="1214" d="M123 0h205v897h10l215 -647h109l215 647h10v-897h205v1434h-205l-269 -791h-8l-282 791h-205v-1434z" />
<glyph unicode="&#x41c;" horiz-adv-x="1214" d="M123 0h205v897h10l215 -647h109l215 647h10v-897h205v1434h-205l-269 -791h-8l-282 791h-205v-1434z" />
<glyph unicode="&#xcd;" horiz-adv-x="931" d="M123 1434v-1434h205v633h276v-633h205v1434h-205v-617h-276v617h-205z" />
<glyph unicode="&#x41d;" horiz-adv-x="931" d="M123 1434v-1434h205v633h276v-633h205v1434h-205v-617h-276v617h-205z" />
<glyph unicode="&#xce;" horiz-adv-x="946" d="M115 377q0 -82 16 -159t90 -146q47 -43 109.5 -67.5t142.5 -24.5t142.5 24.5t109.5 67.5q74 70 90 146.5t16 158.5v680q0 82 -16 158.5t-90 146.5q-47 43 -109.5 67.5t-142.5 24.5t-142.5 -24.5t-109.5 -67.5q-74 -70 -90 -146.5t-16 -158.5v-680zM627 346 q0 -33 -7.5 -64.5t-35.5 -60.5q-16 -16 -44 -28.5t-67 -12.5t-66.5 12.5t-44.5 28.5q-29 29 -36 60.5t-7 64.5v741q0 33 7.5 65t35.5 60q16 16 44 28.5t67 12.5t66.5 -12t44.5 -29q29 -29 36 -60.5t7 -64.5v-741z" />
<glyph unicode="&#x41e;" horiz-adv-x="946" d="M115 377q0 -82 16 -159t90 -146q47 -43 109.5 -67.5t142.5 -24.5t142.5 24.5t109.5 67.5q74 70 90 146.5t16 158.5v680q0 82 -16 158.5t-90 146.5q-47 43 -109.5 67.5t-142.5 24.5t-142.5 -24.5t-109.5 -67.5q-74 -70 -90 -146.5t-16 -158.5v-680zM627 346 q0 -33 -7.5 -64.5t-35.5 -60.5q-16 -16 -44 -28.5t-67 -12.5t-66.5 12.5t-44.5 28.5q-29 29 -36 60.5t-7 64.5v741q0 33 7.5 65t35.5 60q16 16 44 28.5t67 12.5t66.5 -12t44.5 -29q29 -29 36 -60.5t7 -64.5v-741z" />
<glyph unicode="&#xcf;" horiz-adv-x="921" d="M123 1434v-1434h205v1249h266v-1249h205v1434h-676z" />
<glyph unicode="&#x41f;" horiz-adv-x="921" d="M123 1434v-1434h205v1249h266v-1249h205v1434h-676z" />
<glyph unicode="&#xd0;" horiz-adv-x="880" d="M123 0h205v567h121q33 0 69.5 4t73.5 16.5t72.5 34t66.5 58.5q31 35 48.5 73t26.5 76.5t11 74.5t2 67v41q0 80 -17.5 168t-86.5 159q-35 33 -71 52.5t-72.5 29t-73.5 11.5t-70 2h-305v-1434zM328 1249h71q41 0 83 -4t77 -33q43 -35 49 -82t6 -83v-95q0 -39 -3 -75.5 t-35.5 -71.5t-70.5 -44t-67 -9h-110v497z" />
<glyph unicode="&#x420;" horiz-adv-x="880" d="M123 0h205v567h121q33 0 69.5 4t73.5 16.5t72.5 34t66.5 58.5q31 35 48.5 73t26.5 76.5t11 74.5t2 67v41q0 80 -17.5 168t-86.5 159q-35 33 -71 52.5t-72.5 29t-73.5 11.5t-70 2h-305v-1434zM328 1249h71q41 0 83 -4t77 -33q43 -35 49 -82t6 -83v-95q0 -39 -3 -75.5 t-35.5 -71.5t-70.5 -44t-67 -9h-110v497z" />
<glyph unicode="&#xd1;" horiz-adv-x="888" d="M592 1026h199v98q0 76 -27 137.5t-66 100.5q-47 45 -114.5 68.5t-132.5 23.5q-57 0 -122 -20.5t-112 -63.5q-70 -59 -87 -135t-17 -145v-744q0 -55 8 -123.5t63 -134.5q35 -41 95.5 -74.5t162.5 -33.5q106 0 171 30.5t98 65.5q29 29 57.5 92t28.5 170v59h-205v-51 q0 -53 -10.5 -79.5t-18.5 -37.5q-18 -25 -49 -37t-65 -12q-43 0 -69 17.5t-36 33.5q-20 29 -23.5 61t-3.5 66v707q0 37 5.5 74t29.5 67q16 18 41 32.5t66 14.5q49 0 73.5 -20.5t32.5 -30.5q14 -20 20.5 -46t6.5 -48v-82z" />
<glyph unicode="&#x421;" horiz-adv-x="888" d="M592 1026h199v98q0 76 -27 137.5t-66 100.5q-47 45 -114.5 68.5t-132.5 23.5q-57 0 -122 -20.5t-112 -63.5q-70 -59 -87 -135t-17 -145v-744q0 -55 8 -123.5t63 -134.5q35 -41 95.5 -74.5t162.5 -33.5q106 0 171 30.5t98 65.5q29 29 57.5 92t28.5 170v59h-205v-51 q0 -53 -10.5 -79.5t-18.5 -37.5q-18 -25 -49 -37t-65 -12q-43 0 -69 17.5t-36 33.5q-20 29 -23.5 61t-3.5 66v707q0 37 5.5 74t29.5 67q16 18 41 32.5t66 14.5q49 0 73.5 -20.5t32.5 -30.5q14 -20 20.5 -46t6.5 -48v-82z" />
<glyph unicode="&#xd2;" horiz-adv-x="794" d="M41 1434v-195h254v-1239h205v1239h254v195h-713z" />
<glyph unicode="&#x422;" horiz-adv-x="794" d="M41 1434v-195h254v-1239h205v1239h254v195h-713z" />
<glyph unicode="&#xd3;" horiz-adv-x="782" d="M6 1434l322 -998l-27 -121q-4 -20 -16.5 -46.5t-24.5 -39.5q-31 -35 -94 -34h-51v-195h73q41 0 85 5t92 34q45 27 74.5 73t49 102t34 118.5t30.5 122.5l244 979h-211l-90 -410l-15 -70q-8 -39 -15 -78.5l-13.5 -77.5t-10.5 -67h-6l-196 703h-234z" />
<glyph unicode="&#x423;" horiz-adv-x="782" d="M6 1434l322 -998l-27 -121q-4 -20 -16.5 -46.5t-24.5 -39.5q-31 -35 -94 -34h-51v-195h73q41 0 85 5t92 34q45 27 74.5 73t49 102t34 118.5t30.5 122.5l244 979h-211l-90 -410l-15 -70q-8 -39 -15 -78.5l-13.5 -77.5t-10.5 -67h-6l-196 703h-234z" />
<glyph unicode="&#xd4;" horiz-adv-x="1249" d="M727 1454h-205v-184h-49q-33 0 -69.5 -2t-73.5 -11.5t-74 -29t-70 -51.5q-35 -37 -56 -77t-31.5 -83t-13.5 -86t-3 -82v-248q0 -31 2 -66.5t11 -74.5t26.5 -78t48.5 -72q35 -41 75 -63.5t78.5 -33.5t72.5 -14t57 -3h69v-195h205v195h70q23 0 56.5 3t72.5 14t78.5 33.5 t74.5 63.5q31 33 48.5 72t26.5 78t11 74.5t2 66.5v248q0 80 -17 168t-87 160q-35 33 -71 52t-72.5 28.5t-73.5 11.5t-70 2h-49v184zM727 1083h21q41 0 82.5 -4t76.5 -32q43 -35 49.5 -82t6.5 -84v-299q0 -39 -3.5 -75t-35.5 -73q-35 -37 -71 -44t-67 -7h-59v700zM522 1083 v-700h-59q-31 0 -67 7t-70 44q-33 37 -36 73t-3 75v299q0 37 6 84t49 82q35 29 77 32.5t83 3.5h20z" />
<glyph unicode="&#x424;" horiz-adv-x="1249" d="M727 1454h-205v-184h-49q-33 0 -69.5 -2t-73.5 -11.5t-74 -29t-70 -51.5q-35 -37 -56 -77t-31.5 -83t-13.5 -86t-3 -82v-248q0 -31 2 -66.5t11 -74.5t26.5 -78t48.5 -72q35 -41 75 -63.5t78.5 -33.5t72.5 -14t57 -3h69v-195h205v195h70q23 0 56.5 3t72.5 14t78.5 33.5 t74.5 63.5q31 33 48.5 72t26.5 78t11 74.5t2 66.5v248q0 80 -17 168t-87 160q-35 33 -71 52t-72.5 28.5t-73.5 11.5t-70 2h-49v184zM727 1083h21q41 0 82.5 -4t76.5 -32q43 -35 49.5 -82t6.5 -84v-299q0 -39 -3.5 -75t-35.5 -73q-35 -37 -71 -44t-67 -7h-59v700zM522 1083 v-700h-59q-31 0 -67 7t-70 44q-33 37 -36 73t-3 75v299q0 37 6 84t49 82q35 29 77 32.5t83 3.5h20z" />
<glyph unicode="&#xd5;" horiz-adv-x="894" d="M63 1434l275 -676l-307 -758h225l188 518l203 -518h217l-311 758l283 676h-226l-166 -451l-163 451h-218z" />
<glyph unicode="&#x425;" horiz-adv-x="894" d="M63 1434l275 -676l-307 -758h225l188 518l203 -518h217l-311 758l283 676h-226l-166 -451l-163 451h-218z" />
<glyph unicode="&#xd6;" horiz-adv-x="925" d="M123 0h598v-221h194v405h-127v1250h-204v-1250h-256v1250h-205v-1434z" />
<glyph unicode="&#x426;" horiz-adv-x="925" d="M123 0h598v-221h194v405h-127v1250h-204v-1250h-256v1250h-205v-1434z" />
<glyph unicode="&#xd7;" horiz-adv-x="878" d="M551 1434v-656q-29 -16 -57.5 -22t-57.5 -6q-23 0 -50.5 7t-49.5 29q-29 33 -34 83.5t-5 82.5v482h-205v-527q0 -27 2 -59.5t9.5 -67.5t21.5 -68.5t39 -60.5q8 -10 26.5 -25.5t46 -28.5t66.5 -22.5t90 -9.5q49 0 87 8.5t71 20.5v-594h205v1434h-205z" />
<glyph unicode="&#x427;" horiz-adv-x="878" d="M551 1434v-656q-29 -16 -57.5 -22t-57.5 -6q-23 0 -50.5 7t-49.5 29q-29 33 -34 83.5t-5 82.5v482h-205v-527q0 -27 2 -59.5t9.5 -67.5t21.5 -68.5t39 -60.5q8 -10 26.5 -25.5t46 -28.5t66.5 -22.5t90 -9.5q49 0 87 8.5t71 20.5v-594h205v1434h-205z" />
<glyph unicode="&#xd8;" horiz-adv-x="1310" d="M123 0h1065v1434h-205v-1250h-225v1250h-205v-1250h-225v1250h-205v-1434z" />
<glyph unicode="&#x428;" horiz-adv-x="1310" d="M123 0h1065v1434h-205v-1250h-225v1250h-205v-1250h-225v1250h-205v-1434z" />
<glyph unicode="&#xd9;" horiz-adv-x="1325" d="M328 1434h-205v-1434h997v-221h195v405h-127v1250h-205v-1250h-225v1250h-205v-1250h-225v1250z" />
<glyph unicode="&#x429;" horiz-adv-x="1325" d="M328 1434h-205v-1434h997v-221h195v405h-127v1250h-205v-1250h-225v1250h-205v-1250h-225v1250z" />
<glyph unicode="&#xda;" horiz-adv-x="1040" d="M485 854v580h-465v-195h261v-1239h311q70 0 122 13.5t88 33t59.5 43t37.5 45.5q41 61 50 119.5t9 112.5v168q0 20 -1 47.5t-9 59.5t-26.5 65.5t-51.5 64.5q-35 33 -72.5 49.5t-74.5 23.5t-72 8t-65 1h-101zM485 670h105q63 0 108 -37q35 -29 45.5 -67t10.5 -91v-78 q0 -76 -20.5 -117.5t-48.5 -63t-57.5 -27t-49.5 -5.5h-93v486z" />
<glyph unicode="&#x42a;" horiz-adv-x="1040" d="M485 854v580h-465v-195h261v-1239h311q70 0 122 13.5t88 33t59.5 43t37.5 45.5q41 61 50 119.5t9 112.5v168q0 20 -1 47.5t-9 59.5t-26.5 65.5t-51.5 64.5q-35 33 -72.5 49.5t-74.5 23.5t-72 8t-65 1h-101zM485 670h105q63 0 108 -37q35 -29 45.5 -67t10.5 -91v-78 q0 -76 -20.5 -117.5t-48.5 -63t-57.5 -27t-49.5 -5.5h-93v486z" />
<glyph unicode="&#xdb;" horiz-adv-x="1294" d="M123 1434v-1434h311q70 0 122 13.5t88 33t59.5 43t37.5 45.5q41 61 50.5 119.5t9.5 112.5v168q0 20 -1 47.5t-9.5 59.5t-27 65.5t-50.5 64.5q-35 33 -73 49.5t-75 23.5t-71.5 8t-65.5 1h-100v580h-205zM328 670h104q63 0 109 -37q35 -29 45 -67t10 -91v-78 q0 -76 -20.5 -117.5t-48 -63t-57.5 -27t-50 -5.5h-92v486zM967 1434v-1434h204v1434h-204z" />
<glyph unicode="&#x42b;" horiz-adv-x="1294" d="M123 1434v-1434h311q70 0 122 13.5t88 33t59.5 43t37.5 45.5q41 61 50.5 119.5t9.5 112.5v168q0 20 -1 47.5t-9.5 59.5t-27 65.5t-50.5 64.5q-35 33 -73 49.5t-75 23.5t-71.5 8t-65.5 1h-100v580h-205zM328 670h104q63 0 109 -37q35 -29 45 -67t10 -91v-78 q0 -76 -20.5 -117.5t-48 -63t-57.5 -27t-50 -5.5h-92v486zM967 1434v-1434h204v1434h-204z" />
<glyph unicode="&#xdc;" horiz-adv-x="882" d="M123 1434v-1434h311q70 0 122 13.5t88 33t59.5 43t37.5 45.5q41 61 50.5 119.5t9.5 112.5v168q0 20 -1 47.5t-9.5 59.5t-27 65.5t-50.5 64.5q-35 33 -73 49.5t-75 23.5t-71.5 8t-65.5 1h-100v580h-205zM328 670h104q63 0 109 -37q35 -29 45 -67t10 -91v-78 q0 -76 -20.5 -117.5t-48 -63t-57.5 -27t-50 -5.5h-92v486z" />
<glyph unicode="&#x42c;" horiz-adv-x="882" d="M123 1434v-1434h311q70 0 122 13.5t88 33t59.5 43t37.5 45.5q41 61 50.5 119.5t9.5 112.5v168q0 20 -1 47.5t-9.5 59.5t-27 65.5t-50.5 64.5q-35 33 -73 49.5t-75 23.5t-71.5 8t-65.5 1h-100v580h-205zM328 670h104q63 0 109 -37q35 -29 45 -67t10 -91v-78 q0 -76 -20.5 -117.5t-48 -63t-57.5 -27t-50 -5.5h-92v486z" />
<glyph unicode="&#xdd;" horiz-adv-x="847" d="M61 1026h205v86q0 61 35 101t98 40q59 0 100.5 -31.5t41.5 -84.5v-297h-254v-185h254v-321q0 -18 -1 -44t-13.5 -50.5t-40 -42t-80.5 -17.5q-66 0 -103 32t-37 103v82h-205v-133q0 -47 15.5 -97t54.5 -92t102.5 -68.5t159.5 -26.5q127 0 198 38.5t105.5 95t41.5 119 t7 109.5v813q0 82 -30.5 139.5t-79.5 92t-111.5 51t-126.5 16.5q-66 0 -126 -18.5t-106 -55.5t-75 -93t-29 -132v-129z" />
<glyph unicode="&#x42d;" horiz-adv-x="847" d="M61 1026h205v86q0 61 35 101t98 40q59 0 100.5 -31.5t41.5 -84.5v-297h-254v-185h254v-321q0 -18 -1 -44t-13.5 -50.5t-40 -42t-80.5 -17.5q-66 0 -103 32t-37 103v82h-205v-133q0 -47 15.5 -97t54.5 -92t102.5 -68.5t159.5 -26.5q127 0 198 38.5t105.5 95t41.5 119 t7 109.5v813q0 82 -30.5 139.5t-79.5 92t-111.5 51t-126.5 16.5q-66 0 -126 -18.5t-106 -55.5t-75 -93t-29 -132v-129z" />
<glyph unicode="&#xde;" horiz-adv-x="1316" d="M498 377q0 -82 16 -159t90 -146q47 -43 109.5 -67.5t142.5 -24.5t142.5 24.5t109.5 67.5q74 70 90 146.5t16 158.5v680q0 82 -16 158.5t-90 146.5q-47 43 -109.5 67.5t-142.5 24.5t-142.5 -24.5t-109.5 -67.5q-74 -70 -90 -146.5t-16 -158.5v-240h-170v617h-205v-1434 h205v633h170v-256zM1010 346q0 -33 -7.5 -64.5t-35.5 -60.5q-16 -16 -44 -28.5t-67 -12.5t-66.5 12.5t-44.5 28.5q-29 29 -36 60.5t-7 64.5v741q0 33 7.5 65t35.5 60q16 16 44 28.5t67 12.5t66.5 -12t44.5 -29q29 -29 36 -60.5t7 -64.5v-741z" />
<glyph unicode="&#x42e;" horiz-adv-x="1316" d="M498 377q0 -82 16 -159t90 -146q47 -43 109.5 -67.5t142.5 -24.5t142.5 24.5t109.5 67.5q74 70 90 146.5t16 158.5v680q0 82 -16 158.5t-90 146.5q-47 43 -109.5 67.5t-142.5 24.5t-142.5 -24.5t-109.5 -67.5q-74 -70 -90 -146.5t-16 -158.5v-240h-170v617h-205v-1434 h205v633h170v-256zM1010 346q0 -33 -7.5 -64.5t-35.5 -60.5q-16 -16 -44 -28.5t-67 -12.5t-66.5 12.5t-44.5 28.5q-29 29 -36 60.5t-7 64.5v741q0 33 7.5 65t35.5 60q16 16 44 28.5t67 12.5t66.5 -12t44.5 -29q29 -29 36 -60.5t7 -64.5v-741z" />
<glyph unicode="&#xdf;" horiz-adv-x="909" d="M786 1434h-258q-39 0 -85 -1t-94 -11.5t-92 -33t-81 -67.5q-35 -43 -55.5 -106.5t-20.5 -143.5v-108q0 -59 18.5 -120t47.5 -100q14 -18 37.5 -39.5t60.5 -37.5l-213 -666h219l185 618h127v-618h204v1434zM582 1249v-446h-107q-35 0 -66.5 9t-60.5 38q-31 29 -37 58.5 t-6 70.5v102q0 41 13.5 76t33.5 55q31 31 66 34t67 3h97z" />
<glyph unicode="&#x42f;" horiz-adv-x="909" d="M786 1434h-258q-39 0 -85 -1t-94 -11.5t-92 -33t-81 -67.5q-35 -43 -55.5 -106.5t-20.5 -143.5v-108q0 -59 18.5 -120t47.5 -100q14 -18 37.5 -39.5t60.5 -37.5l-213 -666h219l185 618h127v-618h204v1434zM582 1249v-446h-107q-35 0 -66.5 9t-60.5 38q-31 29 -37 58.5 t-6 70.5v102q0 41 13.5 76t33.5 55q31 31 66 34t67 3h97z" />
<glyph unicode="&#xe0;" horiz-adv-x="829" d="M514 0h205v711q0 53 -14.5 118.5t-69.5 120.5q-39 37 -94.5 59.5t-124.5 22.5q-72 0 -131.5 -22.5t-98.5 -61.5q-35 -35 -60.5 -92t-23.5 -127h195q2 39 27 66q16 20 37.5 28t44.5 8q51 0 81 -32q18 -20 22.5 -42t4.5 -44v-107q-47 4 -76.5 5t-40.5 1q-23 0 -53.5 -2 t-64 -11t-66.5 -26.5t-57 -48.5q-23 -27 -35 -59.5t-18.5 -66t-8.5 -67.5t-2 -61q0 -61 13.5 -124.5t60.5 -108.5q39 -35 82 -44t74 -9q33 0 61.5 8t56.5 31q23 16 41.5 38.5t28.5 38.5h4v-100zM514 299q0 -68 -34 -99.5t-81 -31.5q-53 0 -82 47q-12 20 -16 40.5t-4 43.5 q0 25 5 54.5t26 52.5q25 29 57.5 36t56.5 7q35 0 72 -7v-143z" />
<glyph unicode="&#x430;" horiz-adv-x="829" d="M514 0h205v711q0 53 -14.5 118.5t-69.5 120.5q-39 37 -94.5 59.5t-124.5 22.5q-72 0 -131.5 -22.5t-98.5 -61.5q-35 -35 -60.5 -92t-23.5 -127h195q2 39 27 66q16 20 37.5 28t44.5 8q51 0 81 -32q18 -20 22.5 -42t4.5 -44v-107q-47 4 -76.5 5t-40.5 1q-23 0 -53.5 -2 t-64 -11t-66.5 -26.5t-57 -48.5q-23 -27 -35 -59.5t-18.5 -66t-8.5 -67.5t-2 -61q0 -61 13.5 -124.5t60.5 -108.5q39 -35 82 -44t74 -9q33 0 61.5 8t56.5 31q23 16 41.5 38.5t28.5 38.5h4v-100zM514 299q0 -68 -34 -99.5t-81 -31.5q-53 0 -82 47q-12 20 -16 40.5t-4 43.5 q0 25 5 54.5t26 52.5q25 29 57.5 36t56.5 7q35 0 72 -7v-143z" />
<glyph unicode="&#xe1;" horiz-adv-x="811" d="M96 328q0 -31 2 -66t12.5 -70.5t31 -70.5t55.5 -66q41 -35 96 -53t113 -18q57 0 112 18t96 53q35 31 55.5 66t31 70.5t12.5 70.5t2 66v456q0 53 -20.5 98.5t-49.5 73.5q-29 27 -67.5 43.5t-94.5 16.5q-70 0 -126 -35t-81 -90h-6v35q0 29 8.5 62.5t28.5 60.5q20 29 50 44 t55 25l45 15l45 12q31 8 69 22q31 10 61 28.5t48 61.5q12 27 15 56.5t3 58.5v62h-188v-33q0 -33 -18 -51q-12 -14 -31 -23.5t-35 -15.5l-18 -7l-19 -8l-23 -9l-34 -13q-45 -18 -91 -46t-81 -83q-41 -66 -52.5 -145.5t-11.5 -155.5v-516zM510 315q0 -68 -31 -102 q-12 -12 -31.5 -20.5t-41.5 -8.5q-45 0 -74 29q-31 35 -31 102v385q0 68 31 103q29 29 74 28q45 0 73 -28q31 -35 31 -103v-385z" />
<glyph unicode="&#x431;" horiz-adv-x="811" d="M96 328q0 -31 2 -66t12.5 -70.5t31 -70.5t55.5 -66q41 -35 96 -53t113 -18q57 0 112 18t96 53q35 31 55.5 66t31 70.5t12.5 70.5t2 66v456q0 53 -20.5 98.5t-49.5 73.5q-29 27 -67.5 43.5t-94.5 16.5q-70 0 -126 -35t-81 -90h-6v35q0 29 8.5 62.5t28.5 60.5q20 29 50 44 t55 25l45 15l45 12q31 8 69 22q31 10 61 28.5t48 61.5q12 27 15 56.5t3 58.5v62h-188v-33q0 -33 -18 -51q-12 -14 -31 -23.5t-35 -15.5l-18 -7l-19 -8l-23 -9l-34 -13q-45 -18 -91 -46t-81 -83q-41 -66 -52.5 -145.5t-11.5 -155.5v-516zM510 315q0 -68 -31 -102 q-12 -12 -31.5 -20.5t-41.5 -8.5q-45 0 -74 29q-31 35 -31 102v385q0 68 31 103q29 29 74 28q45 0 73 -28q31 -35 31 -103v-385z" />
<glyph unicode="&#xe2;" horiz-adv-x="817" d="M111 1016v-1016h311q57 0 114.5 10t106.5 56q29 25 55.5 71.5t26.5 118.5v47q0 35 -8 73t-35 73q-25 33 -50.5 47t-43.5 20q33 10 52 25.5t28 25.5q33 37 41 77t8 73v49q0 41 -16.5 91t-51.5 85q-33 33 -84 53.5t-116 20.5h-338zM315 831h91q20 0 42.5 -4t38.5 -22 q4 -4 14.5 -20.5t10.5 -51.5v-20q0 -18 -4 -40t-21 -42q-18 -23 -38.5 -28t-42.5 -5h-91v233zM315 434h95q23 0 45 -5t41 -26q16 -16 20 -37.5t4 -37.5v-37q0 -16 -3 -35.5t-19 -36.5q-18 -23 -43 -29t-45 -6h-95v250z" />
<glyph unicode="&#x432;" horiz-adv-x="817" d="M111 1016v-1016h311q57 0 114.5 10t106.5 56q29 25 55.5 71.5t26.5 118.5v47q0 35 -8 73t-35 73q-25 33 -50.5 47t-43.5 20q33 10 52 25.5t28 25.5q33 37 41 77t8 73v49q0 41 -16.5 91t-51.5 85q-33 33 -84 53.5t-116 20.5h-338zM315 831h91q20 0 42.5 -4t38.5 -22 q4 -4 14.5 -20.5t10.5 -51.5v-20q0 -18 -4 -40t-21 -42q-18 -23 -38.5 -28t-42.5 -5h-91v233zM315 434h95q23 0 45 -5t41 -26q16 -16 20 -37.5t4 -37.5v-37q0 -16 -3 -35.5t-19 -36.5q-18 -23 -43 -29t-45 -6h-95v250z" />
<glyph unicode="&#xe3;" horiz-adv-x="626" d="M111 0h204v815h306v201h-510v-1016z" />
<glyph unicode="&#x433;" horiz-adv-x="626" d="M111 0h204v815h306v201h-510v-1016z" />
<glyph unicode="&#xe4;" horiz-adv-x="847" d="M731 184v832h-522v-127q0 -47 -2 -101.5t-5 -109.5t-7.5 -109.5t-10.5 -97.5q-10 -76 -28.5 -143.5t-53.5 -143.5h-106v-389h194v205h463v-205h195v389h-117zM526 831v-657h-225q29 66 44 124t26 116q16 92 20 176t4 168v73h131z" />
<glyph unicode="&#x434;" horiz-adv-x="847" d="M731 184v832h-522v-127q0 -47 -2 -101.5t-5 -109.5t-7.5 -109.5t-10.5 -97.5q-10 -76 -28.5 -143.5t-53.5 -143.5h-106v-389h194v205h463v-205h195v389h-117zM526 831v-657h-225q29 66 44 124t26 116q16 92 20 176t4 168v73h131z" />
<glyph unicode="&#xe5;" horiz-adv-x="813" d="M307 432h414v266q0 31 -3 64t-14.5 66.5t-32 67.5t-53.5 62q-39 35 -93 54.5t-119 19.5q-66 0 -117 -19.5t-86 -49.5q-33 -29 -52.5 -61t-30.5 -63.5t-14.5 -63.5t-3.5 -58v-389q0 -23 1 -53.5t8.5 -63.5t23 -65.5t41.5 -63.5q41 -45 102.5 -71.5t133.5 -26.5 q53 0 102 14t88 43q37 27 59.5 58.5t35 64.5t16.5 64.5t4 60.5v8h-205q0 -39 -18 -70q-29 -43 -82 -43t-78 29q-18 18 -22.5 42t-4.5 46v131zM307 590v125q0 20 4 41.5t21 40.5q29 35 80 34q47 0 75 -28q18 -18 23.5 -39t5.5 -41v-133h-209z" />
<glyph unicode="&#x435;" horiz-adv-x="813" d="M307 432h414v266q0 31 -3 64t-14.5 66.5t-32 67.5t-53.5 62q-39 35 -93 54.5t-119 19.5q-66 0 -117 -19.5t-86 -49.5q-33 -29 -52.5 -61t-30.5 -63.5t-14.5 -63.5t-3.5 -58v-389q0 -23 1 -53.5t8.5 -63.5t23 -65.5t41.5 -63.5q41 -45 102.5 -71.5t133.5 -26.5 q53 0 102 14t88 43q37 27 59.5 58.5t35 64.5t16.5 64.5t4 60.5v8h-205q0 -39 -18 -70q-29 -43 -82 -43t-78 29q-18 18 -22.5 42t-4.5 46v131zM307 590v125q0 20 4 41.5t21 40.5q29 35 80 34q47 0 75 -28q18 -18 23.5 -39t5.5 -41v-133h-209z" />
<glyph unicode="&#xe6;" horiz-adv-x="1179" d="M692 602v414h-205v-414h-38q-39 0 -55.5 11.5t-31.5 41.5q-14 29 -18 50.5t-8 48.5l-12 73q-4 29 -14.5 66t-33.5 65q-33 45 -79.5 56.5t-96.5 11.5h-51v-174h31q18 0 31.5 -6t21.5 -15q6 -8 12.5 -23t10.5 -46l10 -76q4 -35 8 -62.5t14 -52.5q16 -35 45 -51l-192 -520 h211l147 438h88v-438h205v438h88l148 -438h211l-193 520q29 16 45 51q10 25 14.5 52.5t8.5 62.5l10 76q4 31 10 46t13 23q8 8 21 14.5t32 6.5h30v174h-51q-49 0 -96 -11t-80 -57q-23 -29 -33 -65.5t-14 -65.5l-12 -73q-4 -27 -8.5 -48.5t-18.5 -50.5q-14 -31 -30.5 -42 t-55.5 -11h-39z" />
<glyph unicode="&#x436;" horiz-adv-x="1179" d="M692 602v414h-205v-414h-38q-39 0 -55.5 11.5t-31.5 41.5q-14 29 -18 50.5t-8 48.5l-12 73q-4 29 -14.5 66t-33.5 65q-33 45 -79.5 56.5t-96.5 11.5h-51v-174h31q18 0 31.5 -6t21.5 -15q6 -8 12.5 -23t10.5 -46l10 -76q4 -35 8 -62.5t14 -52.5q16 -35 45 -51l-192 -520 h211l147 438h88v-438h205v438h88l148 -438h211l-193 520q29 16 45 51q10 25 14.5 52.5t8.5 62.5l10 76q4 31 10 46t13 23q8 8 21 14.5t32 6.5h30v174h-51q-49 0 -96 -11t-80 -57q-23 -29 -33 -65.5t-14 -65.5l-12 -73q-4 -27 -8.5 -48.5t-18.5 -50.5q-14 -31 -30.5 -42 t-55.5 -11h-39z" />
<glyph unicode="&#xe7;" horiz-adv-x="772" d="M61 709h197v14q0 18 5 37.5t22 38.5q12 14 32.5 23t49.5 9q16 0 37.5 -6t37.5 -28q25 -31 25 -76v-10q0 -47 -25 -76q-12 -14 -32.5 -23.5t-49.5 -9.5h-65v-176h72q18 0 39.5 -6t37.5 -21q10 -8 20.5 -25.5t10.5 -49.5v-19q0 -23 -5 -46t-19 -40q-10 -12 -31 -23.5 t-58 -11.5q-18 0 -40.5 6.5t-40.5 28.5q-23 27 -23 64v20h-197v-39q0 -63 26 -116.5t60 -86.5q41 -39 102.5 -58t115.5 -19q72 0 133 23.5t102 64.5q35 37 57.5 92t22.5 112v27q0 29 -6 69t-33 77q-12 18 -32.5 36.5t-51.5 30.5q31 14 50.5 32.5t29.5 35.5q16 25 25.5 58.5 t9.5 74.5v28q0 82 -29 132.5t-57 78.5q-33 29 -85 52.5t-126 23.5q-76 0 -135.5 -23.5t-100.5 -64.5q-27 -29 -52.5 -82t-25.5 -133v-20z" />
<glyph unicode="&#x437;" horiz-adv-x="772" d="M61 709h197v14q0 18 5 37.5t22 38.5q12 14 32.5 23t49.5 9q16 0 37.5 -6t37.5 -28q25 -31 25 -76v-10q0 -47 -25 -76q-12 -14 -32.5 -23.5t-49.5 -9.5h-65v-176h72q18 0 39.5 -6t37.5 -21q10 -8 20.5 -25.5t10.5 -49.5v-19q0 -23 -5 -46t-19 -40q-10 -12 -31 -23.5 t-58 -11.5q-18 0 -40.5 6.5t-40.5 28.5q-23 27 -23 64v20h-197v-39q0 -63 26 -116.5t60 -86.5q41 -39 102.5 -58t115.5 -19q72 0 133 23.5t102 64.5q35 37 57.5 92t22.5 112v27q0 29 -6 69t-33 77q-12 18 -32.5 36.5t-51.5 30.5q31 14 50.5 32.5t29.5 35.5q16 25 25.5 58.5 t9.5 74.5v28q0 82 -29 132.5t-57 78.5q-33 29 -85 52.5t-126 23.5q-76 0 -135.5 -23.5t-100.5 -64.5q-27 -29 -52.5 -82t-25.5 -133v-20z" />
<glyph unicode="&#xe8;" horiz-adv-x="882" d="M111 1016v-1016h204v125l252 442v-567h205v1016h-205v-125l-252 -442v567h-204z" />
<glyph unicode="&#x438;" horiz-adv-x="882" d="M111 1016v-1016h204v125l252 442v-567h205v1016h-205v-125l-252 -442v567h-204z" />
<glyph unicode="&#xe9;" horiz-adv-x="882" d="M674 1421h-152v-30q0 -10 -2 -23.5t-6 -21.5q-4 -12 -21.5 -26.5t-52.5 -14.5t-52 14t-21 27q-4 8 -6.5 21t-2.5 24v30h-151v-26q0 -41 10 -89.5t51 -88.5q39 -39 87 -48.5t85 -9.5t85 9.5t87 48.5q41 41 51.5 89t10.5 89v26zM111 1016v-1016h204v125l252 442v-567h205 v1016h-205v-125l-252 -442v567h-204z" />
<glyph unicode="&#x439;" horiz-adv-x="882" d="M674 1421h-152v-30q0 -10 -2 -23.5t-6 -21.5q-4 -12 -21.5 -26.5t-52.5 -14.5t-52 14t-21 27q-4 8 -6.5 21t-2.5 24v30h-151v-26q0 -41 10 -89.5t51 -88.5q39 -39 87 -48.5t85 -9.5t85 9.5t87 48.5q41 41 51.5 89t10.5 89v26zM111 1016v-1016h204v125l252 442v-567h205 v1016h-205v-125l-252 -442v567h-204z" />
<glyph unicode="&#xea;" horiz-adv-x="825" d="M315 606v410h-204v-1016h204v434h115l148 -434h206l-184 520q10 8 20.5 19.5t20.5 31.5q10 23 14 51.5l9 63.5l10 76q4 31 10 46t12 23q8 8 21.5 14.5t32.5 6.5h26v174h-47q-49 0 -96 -11t-80 -57q-23 -29 -33 -65.5t-14 -65.5l-12 -73q-4 -23 -9.5 -48.5t-17.5 -50.5 q-16 -31 -34.5 -40t-51.5 -9h-66z" />
<glyph unicode="&#x43a;" horiz-adv-x="825" d="M315 606v410h-204v-1016h204v434h115l148 -434h206l-184 520q10 8 20.5 19.5t20.5 31.5q10 23 14 51.5l9 63.5l10 76q4 31 10 46t12 23q8 8 21.5 14.5t32.5 6.5h26v174h-47q-49 0 -96 -11t-80 -57q-23 -29 -33 -65.5t-14 -65.5l-12 -73q-4 -23 -9.5 -48.5t-17.5 -50.5 q-16 -31 -34.5 -40t-51.5 -9h-66z" />
<glyph unicode="&#xeb;" horiz-adv-x="833" d="M723 1016h-524l-4 -201q0 -23 -2 -69l-5 -96q-2 -50 -5 -98t-5 -73q-10 -115 -20.5 -167t-28.5 -79q-16 -25 -44 -43t-60 -18h-25v-172h47q59 0 107.5 18.5t81.5 44.5q29 25 48 57t32.5 66.5t21.5 70.5t14 69q8 51 14.5 116.5t10.5 129t6 115.5t2 79l2 65h131v-831h205 v1016z" />
<glyph unicode="&#x43b;" horiz-adv-x="833" d="M723 1016h-524l-4 -201q0 -23 -2 -69l-5 -96q-2 -50 -5 -98t-5 -73q-10 -115 -20.5 -167t-28.5 -79q-16 -25 -44 -43t-60 -18h-25v-172h47q59 0 107.5 18.5t81.5 44.5q29 25 48 57t32.5 66.5t21.5 70.5t14 69q8 51 14.5 116.5t10.5 129t6 115.5t2 79l2 65h131v-831h205 v1016z" />
<glyph unicode="&#xec;" horiz-adv-x="1036" d="M299 1016h-188v-1016h192v578l172 -433h86l172 433v-578h193v1016h-189l-217 -567h-4z" />
<glyph unicode="&#x43c;" horiz-adv-x="1036" d="M299 1016h-188v-1016h192v578l172 -433h86l172 433v-578h193v1016h-189l-217 -567h-4z" />
<glyph unicode="&#xed;" horiz-adv-x="839" d="M111 0h204v422h209v-422h205v1016h-205v-410h-209v410h-204v-1016z" />
<glyph unicode="&#x43d;" horiz-adv-x="839" d="M111 0h204v422h209v-422h205v1016h-205v-410h-209v410h-204v-1016z" />
<glyph unicode="&#xee;" horiz-adv-x="823" d="M102 328q0 -31 2 -66t12.5 -70.5t31 -70.5t55.5 -66q41 -35 96 -53t113 -18q57 0 112.5 18t96.5 53q35 31 55 66t30.5 70.5t12.5 70.5t2 66v360q0 31 -2 65.5t-12.5 70.5t-31 71t-54.5 66q-41 35 -96.5 53t-112.5 18t-112.5 -18.5t-96.5 -52.5q-35 -31 -55.5 -66t-31 -71 t-12.5 -70.5t-2 -65.5v-360zM516 315q0 -68 -31 -102q-12 -12 -31.5 -20.5t-41.5 -8.5q-45 0 -74 29q-31 35 -31 102v385q0 68 31 103q29 29 74 28q45 0 73 -28q31 -35 31 -103v-385z" />
<glyph unicode="&#x43e;" horiz-adv-x="823" d="M102 328q0 -31 2 -66t12.5 -70.5t31 -70.5t55.5 -66q41 -35 96 -53t113 -18q57 0 112.5 18t96.5 53q35 31 55 66t30.5 70.5t12.5 70.5t2 66v360q0 31 -2 65.5t-12.5 70.5t-31 71t-54.5 66q-41 35 -96.5 53t-112.5 18t-112.5 -18.5t-96.5 -52.5q-35 -31 -55.5 -66t-31 -71 t-12.5 -70.5t-2 -65.5v-360zM516 315q0 -68 -31 -102q-12 -12 -31.5 -20.5t-41.5 -8.5q-45 0 -74 29q-31 35 -31 102v385q0 68 31 103q29 29 74 28q45 0 73 -28q31 -35 31 -103v-385z" />
<glyph unicode="&#xef;" horiz-adv-x="827" d="M111 0h204v831h197v-831h205v1016h-606v-1016z" />
<glyph unicode="&#x43f;" horiz-adv-x="827" d="M111 0h204v831h197v-831h205v1016h-606v-1016z" />
<glyph unicode="&#xf0;" horiz-adv-x="839" d="M315 1016h-204v-1434h204v500q29 -37 68 -59q29 -16 59.5 -27.5t75.5 -11.5t83 13t69 46q41 41 50 88t9 84v528q0 49 -6 106.5t-41 104.5q-6 8 -19.5 21.5t-34 26t-49 21.5t-67.5 9q-31 0 -63.5 -8t-61.5 -27q-20 -14 -38.5 -32.5t-31.5 -38.5h-2v90zM315 696 q0 25 5.5 51.5t27.5 51.5q10 10 29.5 21t48.5 11q43 0 72 -30q20 -23 23 -44.5t3 -47.5v-412q0 -18 -4 -39.5t-22 -42.5q-29 -31 -72 -31q-29 0 -48.5 11.5t-29.5 21.5q-23 25 -28 51.5t-5 50.5v377z" />
<glyph unicode="&#x440;" horiz-adv-x="839" d="M315 1016h-204v-1434h204v500q29 -37 68 -59q29 -16 59.5 -27.5t75.5 -11.5t83 13t69 46q41 41 50 88t9 84v528q0 49 -6 106.5t-41 104.5q-6 8 -19.5 21.5t-34 26t-49 21.5t-67.5 9q-31 0 -63.5 -8t-61.5 -27q-20 -14 -38.5 -32.5t-31.5 -38.5h-2v90zM315 696 q0 25 5.5 51.5t27.5 51.5q10 10 29.5 21t48.5 11q43 0 72 -30q20 -23 23 -44.5t3 -47.5v-412q0 -18 -4 -39.5t-22 -42.5q-29 -31 -72 -31q-29 0 -48.5 11.5t-29.5 21.5q-23 25 -28 51.5t-5 50.5v377z" />
<glyph unicode="&#xf1;" horiz-adv-x="786" d="M725 709v6q0 59 -20.5 122.5t-61.5 106.5q-39 41 -100.5 64.5t-134.5 23.5q-76 0 -127.5 -23.5t-84 -52t-51 -62.5t-27.5 -68.5t-12.5 -68.5t-3.5 -65v-350q0 -33 1 -67.5t8.5 -69.5t24 -69t46.5 -64q41 -43 103.5 -65.5t132.5 -22.5t120 20.5t85 48.5q16 14 34.5 36 t34 49.5t24.5 64.5t9 82v18h-205v-2q0 -14 -3 -37.5t-19 -44.5q-16 -23 -38 -29t-44 -6q-37 0 -56.5 12.5t-27.5 22.5q-14 16 -19.5 40t-5.5 46v393q0 27 5 51.5t23.5 47t40 28.5t40.5 6q31 0 51 -11t31 -27q14 -20 18 -41t4 -39v-4h205z" />
<glyph unicode="&#x441;" horiz-adv-x="786" d="M725 709v6q0 59 -20.5 122.5t-61.5 106.5q-39 41 -100.5 64.5t-134.5 23.5q-76 0 -127.5 -23.5t-84 -52t-51 -62.5t-27.5 -68.5t-12.5 -68.5t-3.5 -65v-350q0 -33 1 -67.5t8.5 -69.5t24 -69t46.5 -64q41 -43 103.5 -65.5t132.5 -22.5t120 20.5t85 48.5q16 14 34.5 36 t34 49.5t24.5 64.5t9 82v18h-205v-2q0 -14 -3 -37.5t-19 -44.5q-16 -23 -38 -29t-44 -6q-37 0 -56.5 12.5t-27.5 22.5q-14 16 -19.5 40t-5.5 46v393q0 27 5 51.5t23.5 47t40 28.5t40.5 6q31 0 51 -11t31 -27q14 -20 18 -41t4 -39v-4h205z" />
<glyph unicode="&#xf2;" horiz-adv-x="655" d="M635 831v185h-615v-185h205v-831h205v831h205z" />
<glyph unicode="&#x442;" horiz-adv-x="655" d="M635 831v185h-615v-185h205v-831h205v831h205z" />
<glyph unicode="&#xf3;" horiz-adv-x="761" d="M20 1016l297 -969l-32 -133q-12 -49 -21.5 -69.5t-15.5 -28.5q-23 -29 -48.5 -36t-47.5 -7h-39l4 -191h53q47 0 102.5 9.5t102.5 54.5q45 45 64.5 108.5t29.5 108.5l279 1153h-205l-127 -631h-8l-166 631h-222z" />
<glyph unicode="&#x443;" horiz-adv-x="761" d="M20 1016l297 -969l-32 -133q-12 -49 -21.5 -69.5t-15.5 -28.5q-23 -29 -48.5 -36t-47.5 -7h-39l4 -191h53q47 0 102.5 9.5t102.5 54.5q45 45 64.5 108.5t29.5 108.5l279 1153h-205l-127 -631h-8l-166 631h-222z" />
<glyph unicode="&#xf4;" horiz-adv-x="1134" d="M670 -418v484q29 -41 76 -61.5t88 -20.5q51 0 84.5 16t56.5 37q29 29 48 74t19 104v528q0 53 -7 105.5t-48 105.5q-41 51 -86 64.5t-78 13.5q-29 0 -52 -8t-42 -18q-16 -10 -30.5 -22.5t-28.5 -33.5v484h-205v-484q-14 20 -28.5 32.5t-30.5 23.5q-18 10 -42 18t-53 8 q-33 0 -78 -13t-86 -65q-41 -53 -48 -105t-7 -106v-528q0 -59 19.5 -104t48.5 -74q35 -35 72.5 -44t68.5 -9q37 0 59.5 8t51.5 24q16 10 28.5 20.5t24.5 29.5v-484h205zM662 713q0 25 4 53.5t24 50.5q8 10 24.5 20.5t43.5 10.5q43 0 67 -29q18 -20 22.5 -44.5t4.5 -49.5 v-444q0 -23 -4 -44.5t-23 -41.5q-25 -27 -63 -27q-18 0 -36.5 8t-35.5 27q-20 25 -24 49t-4 51v410zM473 303q0 -27 -4 -51.5t-25 -48.5q-16 -18 -34.5 -26.5t-36.5 -8.5q-39 0 -64 27q-18 20 -22 41.5t-4 44.5v444q0 25 4 49.5t22 44.5q25 29 68 29q27 0 43 -10.5t24 -20.5 q20 -23 24.5 -51.5t4.5 -52.5v-410z" />
<glyph unicode="&#x444;" horiz-adv-x="1134" d="M670 -418v484q29 -41 76 -61.5t88 -20.5q51 0 84.5 16t56.5 37q29 29 48 74t19 104v528q0 53 -7 105.5t-48 105.5q-41 51 -86 64.5t-78 13.5q-29 0 -52 -8t-42 -18q-16 -10 -30.5 -22.5t-28.5 -33.5v484h-205v-484q-14 20 -28.5 32.5t-30.5 23.5q-18 10 -42 18t-53 8 q-33 0 -78 -13t-86 -65q-41 -53 -48 -105t-7 -106v-528q0 -59 19.5 -104t48.5 -74q35 -35 72.5 -44t68.5 -9q37 0 59.5 8t51.5 24q16 10 28.5 20.5t24.5 29.5v-484h205zM662 713q0 25 4 53.5t24 50.5q8 10 24.5 20.5t43.5 10.5q43 0 67 -29q18 -20 22.5 -44.5t4.5 -49.5 v-444q0 -23 -4 -44.5t-23 -41.5q-25 -27 -63 -27q-18 0 -36.5 8t-35.5 27q-20 25 -24 49t-4 51v410zM473 303q0 -27 -4 -51.5t-25 -48.5q-16 -18 -34.5 -26.5t-36.5 -8.5q-39 0 -64 27q-18 20 -22 41.5t-4 44.5v444q0 25 4 49.5t22 44.5q25 29 68 29q27 0 43 -10.5t24 -20.5 q20 -23 24.5 -51.5t4.5 -52.5v-410z" />
<glyph unicode="&#xf5;" horiz-adv-x="733" d="M14 0h215l140 311l139 -311h215l-254 518l242 498h-215l-127 -289l-127 289h-215l237 -498z" />
<glyph unicode="&#x445;" horiz-adv-x="733" d="M14 0h215l140 311l139 -311h215l-254 518l242 498h-215l-127 -289l-127 289h-215l237 -498z" />
<glyph unicode="&#xf6;" horiz-adv-x="876" d="M524 1016v-832h-209v832h-204v-1016h551v-205h194v389h-127v832h-205z" />
<glyph unicode="&#x446;" horiz-adv-x="876" d="M524 1016v-832h-209v832h-204v-1016h551v-205h194v389h-127v832h-205z" />
<glyph unicode="&#xf7;" horiz-adv-x="780" d="M465 0h205v1016h-205v-438q-16 -10 -41 -16.5t-59 -6.5q-16 0 -37 4t-37.5 20.5t-20.5 37t-4 36.5v363h-205v-414q0 -41 8.5 -87t49.5 -87q39 -39 86 -48t82 -9q96 0 178 39v-410z" />
<glyph unicode="&#x447;" horiz-adv-x="780" d="M465 0h205v1016h-205v-438q-16 -10 -41 -16.5t-59 -6.5q-16 0 -37 4t-37.5 20.5t-20.5 37t-4 36.5v363h-205v-414q0 -41 8.5 -87t49.5 -87q39 -39 86 -48t82 -9q96 0 178 39v-410z" />
<glyph unicode="&#xf8;" horiz-adv-x="1224" d="M111 1016v-1016h1003v1016h-205v-832h-194v832h-205v-832h-195v832h-204z" />
<glyph unicode="&#x448;" horiz-adv-x="1224" d="M111 1016v-1016h1003v1016h-205v-832h-194v832h-205v-832h-195v832h-204z" />
<glyph unicode="&#xf9;" horiz-adv-x="1241" d="M111 1016v-1016h936v-205h194v389h-127v832h-205v-832h-194v832h-205v-832h-195v832h-204z" />
<glyph unicode="&#x449;" horiz-adv-x="1241" d="M111 1016v-1016h936v-205h194v389h-127v832h-205v-832h-194v832h-205v-832h-195v832h-204z" />
<glyph unicode="&#xfa;" horiz-adv-x="890" d="M410 639v377h-420v-201h215v-815h311q57 0 113.5 10t107.5 56q29 25 45.5 53t24.5 56t10 51.5t2 41.5v115q0 72 -26.5 119t-55.5 71q-49 45 -106.5 55.5t-114.5 10.5h-106zM410 455h94q23 0 45 -5.5t41 -25.5q16 -16 20 -37.5t4 -38.5v-57q0 -16 -3 -35.5t-19 -36.5 q-18 -23 -43 -29t-45 -6h-94v271z" />
<glyph unicode="&#x44a;" horiz-adv-x="890" d="M410 639v377h-420v-201h215v-815h311q57 0 113.5 10t107.5 56q29 25 45.5 53t24.5 56t10 51.5t2 41.5v115q0 72 -26.5 119t-55.5 71q-49 45 -106.5 55.5t-114.5 10.5h-106zM410 455h94q23 0 45 -5.5t41 -25.5q16 -16 20 -37.5t4 -38.5v-57q0 -16 -3 -35.5t-19 -36.5 q-18 -23 -43 -29t-45 -6h-94v271z" />
<glyph unicode="&#xfb;" horiz-adv-x="1165" d="M111 1016v-1016h311q57 0 113.5 10t107.5 56q29 25 45.5 53t24.5 56t10 51.5t2 41.5v115q0 72 -26.5 119t-55.5 71q-49 45 -106.5 55.5t-114.5 10.5h-107v377h-204zM315 455h95q23 0 45 -5.5t41 -25.5q16 -16 20 -37.5t4 -38.5v-57q0 -16 -3 -35.5t-19 -36.5 q-18 -23 -43 -29t-45 -6h-95v271zM850 0h205v1016h-205v-1016z" />
<glyph unicode="&#x44b;" horiz-adv-x="1165" d="M111 1016v-1016h311q57 0 113.5 10t107.5 56q29 25 45.5 53t24.5 56t10 51.5t2 41.5v115q0 72 -26.5 119t-55.5 71q-49 45 -106.5 55.5t-114.5 10.5h-107v377h-204zM315 455h95q23 0 45 -5.5t41 -25.5q16 -16 20 -37.5t4 -38.5v-57q0 -16 -3 -35.5t-19 -36.5 q-18 -23 -43 -29t-45 -6h-95v271zM850 0h205v1016h-205v-1016z" />
<glyph unicode="&#xfc;" horiz-adv-x="786" d="M111 1016v-1016h311q57 0 113.5 10t107.5 56q29 25 45.5 53t24.5 56t10 51.5t2 41.5v115q0 72 -26.5 119t-55.5 71q-49 45 -106.5 55.5t-114.5 10.5h-107v377h-204zM315 455h95q23 0 45 -5.5t41 -25.5q16 -16 20 -37.5t4 -38.5v-57q0 -16 -3 -35.5t-19 -36.5 q-18 -23 -43 -29t-45 -6h-95v271z" />
<glyph unicode="&#x44c;" horiz-adv-x="786" d="M111 1016v-1016h311q57 0 113.5 10t107.5 56q29 25 45.5 53t24.5 56t10 51.5t2 41.5v115q0 72 -26.5 119t-55.5 71q-49 45 -106.5 55.5t-114.5 10.5h-107v377h-204zM315 455h95q23 0 45 -5.5t41 -25.5q16 -16 20 -37.5t4 -38.5v-57q0 -16 -3 -35.5t-19 -36.5 q-18 -23 -43 -29t-45 -6h-95v271z" />
<glyph unicode="&#xfd;" horiz-adv-x="776" d="M61 709h205v16q0 16 6.5 34.5t16.5 33.5q10 16 30.5 27t51.5 11q18 0 39.5 -6t40 -28.5t23.5 -47t5 -51.5v-92h-200v-184h200v-117q0 -23 -5 -46t-19 -40q-8 -10 -27.5 -22.5t-56.5 -12.5q-16 0 -40 6.5t-42 28.5q-10 12 -16.5 31.5t-6.5 36.5v16h-205v-18 q0 -90 34 -146.5t69 -85t85 -49t120 -20.5t132 22.5t103 65.5q31 31 47.5 64.5t23.5 68.5t8 69.5t1 67.5v350q0 31 -3 65t-12.5 68.5t-27.5 68.5t-51 62.5t-84 52t-127 23.5q-74 0 -135.5 -23.5t-100.5 -64.5q-41 -43 -61.5 -106.5t-20.5 -122.5v-6z" />
<glyph unicode="&#x44d;" horiz-adv-x="776" d="M61 709h205v16q0 16 6.5 34.5t16.5 33.5q10 16 30.5 27t51.5 11q18 0 39.5 -6t40 -28.5t23.5 -47t5 -51.5v-92h-200v-184h200v-117q0 -23 -5 -46t-19 -40q-8 -10 -27.5 -22.5t-56.5 -12.5q-16 0 -40 6.5t-42 28.5q-10 12 -16.5 31.5t-6.5 36.5v16h-205v-18 q0 -90 34 -146.5t69 -85t85 -49t120 -20.5t132 22.5t103 65.5q31 31 47.5 64.5t23.5 68.5t8 69.5t1 67.5v350q0 31 -3 65t-12.5 68.5t-27.5 68.5t-51 62.5t-84 52t-127 23.5q-74 0 -135.5 -23.5t-100.5 -64.5q-41 -43 -61.5 -106.5t-20.5 -122.5v-6z" />
<glyph unicode="&#xfe;" horiz-adv-x="1153" d="M442 328q0 -31 2 -66t12.5 -70.5t31 -70.5t55.5 -66q41 -35 96 -53t113 -18q57 0 112.5 18t96.5 53q35 31 55 66t30.5 70.5t12.5 70.5t2 66v360q0 31 -2 65.5t-12.5 70.5t-31 71t-54.5 66q-41 35 -96.5 53t-112.5 18t-112.5 -18.5t-96.5 -52.5q-35 -31 -55.5 -66t-31 -71 t-12.5 -70.5t-2 -65.5v-82h-127v410h-204v-1016h204v422h127v-94zM856 315q0 -68 -31 -102q-12 -12 -31.5 -20.5t-41.5 -8.5q-45 0 -74 29q-31 35 -31 102v385q0 68 31 103q29 29 74 28q23 0 42 -8t31 -20q31 -35 31 -103v-385z" />
<glyph unicode="&#x44e;" horiz-adv-x="1153" d="M442 328q0 -31 2 -66t12.5 -70.5t31 -70.5t55.5 -66q41 -35 96 -53t113 -18q57 0 112.5 18t96.5 53q35 31 55 66t30.5 70.5t12.5 70.5t2 66v360q0 31 -2 65.5t-12.5 70.5t-31 71t-54.5 66q-41 35 -96.5 53t-112.5 18t-112.5 -18.5t-96.5 -52.5q-35 -31 -55.5 -66t-31 -71 t-12.5 -70.5t-2 -65.5v-82h-127v410h-204v-1016h204v422h127v-94zM856 315q0 -68 -31 -102q-12 -12 -31.5 -20.5t-41.5 -8.5q-45 0 -74 29q-31 35 -31 102v385q0 68 31 103q29 29 74 28q23 0 42 -8t31 -20q31 -35 31 -103v-385z" />
<glyph unicode="&#xff;" horiz-adv-x="817" d="M707 0v1016h-312q-57 0 -114.5 -10.5t-106.5 -55.5q-29 -25 -55.5 -72t-26.5 -118v-86q0 -41 11.5 -86t33.5 -74q33 -41 80 -65l-166 -449h221l140 418h90v-418h205zM502 582h-94q-23 0 -45.5 5t-40.5 25q-16 16 -20.5 38t-4.5 38v45q0 27 5 47.5t25.5 41t40 25.5t40.5 5 h94v-270z" />
<glyph unicode="&#x44f;" horiz-adv-x="817" d="M707 0v1016h-312q-57 0 -114.5 -10.5t-106.5 -55.5q-29 -25 -55.5 -72t-26.5 -118v-86q0 -41 11.5 -86t33.5 -74q33 -41 80 -65l-166 -449h221l140 418h90v-418h205zM502 582h-94q-23 0 -45.5 5t-40.5 25q-16 16 -20.5 38t-4.5 38v45q0 27 5 47.5t25.5 41t40 25.5t40.5 5 h94v-270z" />
<glyph unicode="&#x2da;" horiz-adv-x="477" d="M-287 410q0 -68 26.5 -124t65.5 -91q35 -33 85.5 -52.5t109.5 -19.5q68 0 125 27t92 68q31 35 50.5 84t19.5 108q0 61 -21.5 111.5t-56.5 87.5q-43 47 -98.5 67.5t-110.5 20.5q-51 0 -103.5 -18.5t-97.5 -61.5q-53 -51 -69.5 -108.5t-16.5 -98.5zM-164 410q0 68 48 116 t116 48t116 -48t48 -116t-48 -116t-116 -48t-116 48t-48 116z" />
<glyph unicode="&#x2dc;" horiz-adv-x="477" d="M198 389q0 -16 -5 -33.5t-13 -27.5q-6 -8 -20.5 -17.5t-43.5 -9.5q-23 0 -45 7t-47 17l-41 15q-23 8 -55.5 17t-71.5 9q-66 0 -103.5 -26.5t-55.5 -54.5q-23 -35 -31 -79t-8 -77v-6h143q0 16 5 33.5t13 27.5q6 8 20.5 17.5t43.5 9.5q23 0 45 -7.5t47 -17.5l41 -14 q23 -8 55.5 -17.5t71.5 -9.5q66 0 103.5 26.5t56.5 55.5q23 35 31 79t8 77v6h-144z" />
<glyph unicode="&#x2000;" horiz-adv-x="890" />
<glyph unicode="&#x2001;" horiz-adv-x="1781" />
<glyph unicode="&#x2002;" horiz-adv-x="890" />
<glyph unicode="&#x2003;" horiz-adv-x="1781" />
<glyph unicode="&#x2004;" horiz-adv-x="593" />
<glyph unicode="&#x2005;" horiz-adv-x="444" />
<glyph unicode="&#x2006;" horiz-adv-x="296" />
<glyph unicode="&#x2007;" horiz-adv-x="296" />
<glyph unicode="&#x2008;" horiz-adv-x="221" />
<glyph unicode="&#x2009;" horiz-adv-x="356" />
<glyph unicode="&#x200a;" horiz-adv-x="98" />
<glyph unicode="&#x2010;" horiz-adv-x="643" d="M92 719v-184h459v184h-459z" />
<glyph unicode="&#x2011;" horiz-adv-x="643" d="M92 719v-184h459v184h-459z" />
<glyph unicode="&#x2012;" horiz-adv-x="643" d="M92 719v-184h459v184h-459z" />
<glyph unicode="&#x2013;" horiz-adv-x="927" d="M123 700v-163h682v163h-682z" />
<glyph unicode="&#x2014;" horiz-adv-x="1312" d="M72 682v-127h1169v127h-1169z" />
<glyph unicode="&#x2018;" horiz-adv-x="389" d="M287 1067v440l-215 -225v-215h215z" />
<glyph unicode="&#x2019;" horiz-adv-x="409" d="M72 1434v-441l215 226v215h-215z" />
<glyph unicode="&#x201a;" horiz-adv-x="389" d="M102 215v-440l215 225v215h-215z" />
<glyph unicode="&#x201c;" horiz-adv-x="755" d="M653 1067v440l-215 -225v-215h215zM287 1067v440l-215 -225v-215h215z" />
<glyph unicode="&#x201d;" horiz-adv-x="776" d="M72 1434v-441l215 226v215h-215zM438 1434v-441l215 226v215h-215z" />
<glyph unicode="&#x201e;" horiz-adv-x="755" d="M102 215v-440l215 225v215h-215zM469 215v-440l215 225v215h-215z" />
<glyph unicode="&#x2026;" horiz-adv-x="1064" d="M72 205v-205h204v205h-204zM440 205v-205h205v205h-205zM788 205v-205h205v205h-205z" />
<glyph unicode="&#x202f;" horiz-adv-x="356" />
<glyph unicode="&#x2039;" horiz-adv-x="538" d="M487 981l-415 -414l415 -413v208l-206 205l206 205v209z" />
<glyph unicode="&#x203a;" horiz-adv-x="538" d="M51 981v-209l207 -205l-207 -205v-208l416 413z" />
<glyph unicode="&#x205f;" horiz-adv-x="444" />
<glyph unicode="&#x2122;" horiz-adv-x="1492" d="M580 1278v156h-508v-156h164v-559h180v559h164zM688 719h170v375l115 -277h102l115 277v-375h170v715h-166l-170 -398l-170 398h-166v-715z" />
<glyph unicode="&#xe000;" horiz-adv-x="1014" d="M0 1015h1015v-1015h-1015v1015z" />
<glyph unicode="&#xfb01;" horiz-adv-x="974" d="M660 0h204v1016h-204v-1016zM660 1405v-201h204v201h-204zM158 0h204v852h164v164h-166v104q0 29 5.5 52.5t25.5 46.5q23 25 46.5 29.5t49.5 4.5h41v181h-73q-53 0 -112.5 -11.5t-106.5 -52.5q-53 -47 -65.5 -106.5t-12.5 -112.5v-135h-107v-164h107v-852z" />
<glyph unicode="&#xfb02;" horiz-adv-x="1019" d="M660 1434v-1155q0 -45 7 -95.5t44 -97.5q25 -31 53.5 -47t57 -25.5t54 -11.5t44.5 -2h59v190h-20q-12 0 -31 3.5t-35 17.5q-18 16 -23.5 37.5t-5.5 40.5v1145h-204zM158 0h204v852h164v164h-166v104q0 29 5.5 52.5t25.5 46.5q23 25 46.5 29.5t49.5 4.5h41v181h-73 q-53 0 -112.5 -11.5t-106.5 -52.5q-53 -47 -65.5 -106.5t-12.5 -112.5v-135h-107v-164h107v-852z" />
<glyph unicode="&#xfb03;" horiz-adv-x="1523" d="M1209 0h204v1016h-204v-1016zM1209 1405v-201h204v201h-204zM707 0h204v852h164v164h-166v104q0 29 5.5 52.5t25.5 46.5q23 25 46.5 29.5t49.5 4.5h41v181h-73q-53 0 -112.5 -11.5t-106.5 -52.5q-53 -47 -65.5 -106.5t-12.5 -112.5v-135h-107v-164h107v-852zM158 0h204 v852h164v164h-166v104q0 29 5.5 52.5t25.5 46.5q23 25 46.5 29.5t49.5 4.5h41v181h-73q-53 0 -112.5 -11.5t-106.5 -52.5q-53 -47 -65.5 -106.5t-12.5 -112.5v-135h-107v-164h107v-852z" />
<glyph unicode="&#xfb04;" horiz-adv-x="1568" d="M1209 1434v-1155q0 -45 7 -95.5t44 -97.5q25 -31 53.5 -47t57 -25.5t54 -11.5t44.5 -2h59v190h-20q-12 0 -31 3.5t-35 17.5q-18 16 -23.5 37.5t-5.5 40.5v1145h-204zM707 0h204v852h164v164h-166v104q0 29 5.5 52.5t25.5 46.5q23 25 46.5 29.5t49.5 4.5h41v181h-73 q-53 0 -112.5 -11.5t-106.5 -52.5q-53 -47 -65.5 -106.5t-12.5 -112.5v-135h-107v-164h107v-852zM158 0h204v852h164v164h-166v104q0 29 5.5 52.5t25.5 46.5q23 25 46.5 29.5t49.5 4.5h41v181h-73q-53 0 -112.5 -11.5t-106.5 -52.5q-53 -47 -65.5 -106.5t-12.5 -112.5v-135 h-107v-164h107v-852z" />
<glyph horiz-adv-x="688" d="M578 1421h-152v-30q0 -10 -2 -23.5t-6 -21.5q-4 -12 -21.5 -26.5t-52.5 -14.5t-52.5 14t-21.5 27q-4 8 -6 21t-2 24v30h-151v-26q0 -41 10 -89.5t51 -88.5q39 -39 87 -48.5t85 -9.5t85 9.5t87 48.5q41 41 51.5 89t10.5 89v26z" />
</font>
</defs>
</svg>
